<?xml version="1.0" encoding="UTF-8"?>
<!-- Generator: visioncortex VTracer 0.6.4 -->
<svg version="1.1" xmlns="http://www.w3.org/2000/svg" width="1413" height="546">
<path d="M0 0 C7.875 6.75 7.875 6.75 10.68807888 9.56503105 C11.33251082 10.20747194 11.97694276 10.84991283 12.64090294 11.51182163 C13.32477469 12.19860622 14.00864644 12.88539081 14.71324158 13.59298706 C15.45834553 14.33723659 16.20344948 15.08148611 16.97113234 15.84828866 C19.45310472 18.32862135 21.93149942 20.81249748 24.40991211 23.29638672 C26.19395831 25.08071514 27.97822504 26.8648231 29.76269531 28.64872742 C33.59680984 32.48261464 37.42939224 36.31802307 41.26057243 40.15484238 C46.79973008 45.70214778 52.34166664 51.24667015 57.88427228 56.79053022 C66.87801349 65.7864568 75.86952203 74.78461148 84.85961914 83.78417969 C93.58956307 92.52331105 102.32056294 101.26138523 111.05297852 109.99804688 C111.59178565 110.53711673 112.13059279 111.07618659 112.68572741 111.6315919 C115.38893263 114.33610222 118.09215856 117.04059184 120.79539478 119.74507117 C143.20014049 142.16017348 165.60122216 164.57893412 188 187 C192.22239729 183.44993824 196.29314848 179.83070065 200.1917572 175.92176819 C200.90279998 175.2109487 200.90279998 175.2109487 201.62820727 174.48576921 C203.19324757 172.92004242 204.75469794 171.35078669 206.31616211 169.78149414 C207.4468334 168.6489008 208.57773472 167.51653704 209.70884705 166.38438416 C212.13344446 163.95663909 214.55648265 161.52735246 216.97831535 159.09684944 C220.81346581 155.24811125 224.65248593 151.40324846 228.49208069 147.5589447 C237.33556983 138.70344055 246.17403391 129.84292655 255.01244354 120.98235321 C263.1142767 112.86030431 271.21718447 104.73933517 279.32416159 96.62242025 C283.13517389 92.80644694 286.9437394 88.98805377 290.75040615 85.16774571 C293.12555744 82.78509637 295.50281352 80.40455543 297.88062477 78.02456093 C298.976315 76.92701034 300.07114643 75.82860158 301.16501617 74.7292366 C306.38025954 69.48863704 311.62375478 64.34377416 317.24210644 59.53204823 C319.99337117 57.13425217 322.55846475 54.5655678 325.12475586 51.97290039 C325.6802713 51.41592468 326.23578674 50.85894897 326.80813599 50.28509521 C327.9970354 49.09242998 329.18478003 47.89861264 330.37144279 46.703722 C332.24761546 44.81465939 334.1270054 42.92884971 336.00721741 41.04380798 C339.9868163 37.05286043 343.96242799 33.05795576 347.9375 29.0625 C352.5699432 24.40646154 357.20400309 19.75205575 361.84225655 15.10180473 C363.69733419 13.24022716 365.54938761 11.3756757 367.40135193 9.51100159 C368.52775681 8.38096771 369.65430034 7.25107202 370.78100586 6.12133789 C371.29783432 5.59934311 371.81466278 5.07734833 372.34715271 4.53953552 C373.54594191 3.34056629 374.77023178 2.16717304 376 1 C376.33 1 376.66 1 377 1 C377 124.09 377 247.18 377 374 C376.01 374 375.02 374 374 374 C374 252.89 374 131.78 374 7 C365.49925658 17.38979752 363.67317912 20.73734661 363.87974548 32.8379364 C363.87167585 34.31588476 363.8596585 35.79381586 363.84406859 37.27170402 C363.81279426 41.30650946 363.8370593 45.3393127 363.87086642 49.37402618 C363.89751024 53.73456098 363.87198414 58.09483682 363.85293579 62.45536804 C363.82704609 70.00138053 363.83388566 77.54678705 363.86323357 85.09277916 C363.90561699 96.00276298 363.89820813 106.91227099 363.87881822 117.82229922 C363.84870089 135.52477306 363.85860606 153.22698772 363.89379883 170.92944336 C363.92789037 188.12121546 363.94305913 205.31283332 363.93286133 222.50463867 C363.93223884 223.56511914 363.93161636 224.62559961 363.93097501 225.71821585 C363.92773559 231.03856847 363.92412501 236.35892076 363.92032993 241.67927301 C363.88934758 285.78627771 363.92336786 329.89305979 364 374 C362.68 374 361.36 374 360 374 C360 258.83 360 143.66 360 25 C349.67067557 37.23493836 349.67067557 37.23493836 348.75949097 51.23687744 C348.75098033 52.63732406 348.73808214 54.03774959 348.7212249 55.4381206 C348.68778731 59.25426814 348.71591377 63.06777258 348.7548008 66.883775 C348.78582443 71.01049304 348.75876344 75.13689563 348.7389679 79.2636261 C348.71257382 86.40262991 348.72249742 93.54082995 348.75750351 100.67978668 C348.80806169 111.0011919 348.80320355 121.32199455 348.78507616 131.64348063 C348.75715535 148.39152314 348.77368439 165.13921235 348.81835938 181.88720703 C348.86164606 198.15059832 348.88387878 214.41379506 348.87792969 230.67724609 C348.87756993 231.68071092 348.87721017 232.68417575 348.8768395 233.7180486 C348.87490514 238.75243319 348.87255826 243.78681749 348.87000632 248.8212018 C348.84938829 290.54761552 348.9009892 332.27370958 349 374 C348.01 374 347.02 374 346 374 C346 264.77 346 155.54 346 43 C335.7567669 54.93985584 335.7567669 54.93985584 334.75949097 68.55352783 C334.74054927 70.52288728 334.74054927 70.52288728 334.7212249 72.53203177 C334.68781291 76.14300505 334.71589363 79.75118173 334.7548008 83.36200118 C334.78584307 87.26786342 334.75875877 91.17339391 334.7389679 95.07926941 C334.71258188 101.83523275 334.72248768 108.59034655 334.75750351 115.34626007 C334.80807556 125.11383143 334.80320034 134.88076629 334.78507616 144.64842317 C334.75715975 160.49801588 334.77367828 176.3472352 334.81835938 192.19677734 C334.86165031 207.58712431 334.88387814 222.97726567 334.87792969 238.36767578 C334.87756993 239.31737469 334.87721017 240.2670736 334.8768395 241.24555126 C334.87490513 246.01022258 334.87255825 250.77489359 334.87000632 255.53956461 C334.84939043 295.02653478 334.9009802 334.51315912 335 374 C334.01 374 333.02 374 332 374 C332 270.38 332 166.76 332 60 C321.9871596 72.35793125 321.9871596 72.35793125 320.75949097 85.99043274 C320.74054927 87.85081791 320.74054927 87.85081791 320.7212249 89.74878663 C320.69645474 93.15335186 320.71583129 96.55222864 320.7548008 99.95629299 C320.78589476 103.64059976 320.75874572 107.32455939 320.7389679 111.00888062 C320.71260442 117.37905977 320.72246081 123.74833738 320.75750351 130.11846352 C320.80811396 139.32820611 320.80319136 148.53727429 320.78507616 157.74710777 C320.75717198 172.69215083 320.77366133 187.63679772 320.81835938 202.58178711 C320.8616621 217.09225416 320.88387637 231.60250305 320.87792969 246.11303711 C320.87756993 247.00870737 320.87721017 247.90437764 320.8768395 248.82718942 C320.8749051 253.32087684 320.87255822 257.81456392 320.87000632 262.30825102 C320.84939637 299.53900528 320.90095524 336.76938128 321 374 C320.01 374 319.02 374 318 374 C317.505 227.975 317.505 227.975 317 79 C307.96831403 90.53613701 307.96831403 90.53613701 306.87974548 103.18682861 C306.86797211 104.35272703 306.85619873 105.51862545 306.84406859 106.71985412 C306.82065025 109.92051523 306.83695881 113.11798313 306.87086642 116.31845355 C306.89760192 119.78259497 306.87195829 123.24641847 306.85293579 126.71055603 C306.82709159 132.70036973 306.83383906 138.68941916 306.86323357 144.67920685 C306.90568348 153.33908797 306.89818836 161.99837087 306.87881822 170.65830824 C306.84872808 184.71096141 306.8585785 198.76328781 306.89379883 212.81591797 C306.92790954 226.46017454 306.94305286 240.10423664 306.93286133 253.74853516 C306.93223884 254.59070222 306.93161636 255.43286929 306.93097501 256.30055657 C306.9277355 260.52580142 306.92412493 264.75104585 306.92032993 268.97629023 C306.889366 303.98432364 306.92332799 338.99204306 307 374 C306.01 374 305.02 374 304 374 C303.505 236.885 303.505 236.885 303 97 C294.06047184 108.23186995 294.06047184 108.23186995 292.87974548 120.503479 C292.86797211 121.59587348 292.85619873 122.68826795 292.84406859 123.81376529 C292.81574489 127.43988772 292.85102203 131.06246102 292.88647461 134.68847656 C292.87914407 137.30106446 292.8678604 139.91364379 292.85293579 142.52619934 C292.82710293 148.13297449 292.8338273 153.73893295 292.86323357 159.34568024 C292.90570024 167.45172994 292.89818343 175.55714089 292.87881822 183.66325077 C292.84873488 196.81745453 292.85857157 209.97130913 292.89379883 223.12548828 C292.92791435 235.89670146 292.9430513 248.66770684 292.93286133 261.43896484 C292.93223884 262.22736599 292.93161636 263.01576714 292.93097501 263.82805923 C292.92773548 267.78359081 292.92412491 271.73912195 292.92032993 275.69465303 C292.88937061 308.4632487 292.92331794 341.23147662 293 374 C292.01 374 291.02 374 290 374 C289.505 245.795 289.505 245.795 289 115 C280.02184383 125.24066264 280.02184383 125.24066264 278.87974548 136.73783875 C278.86797211 137.7599584 278.85619873 138.78207806 278.84406859 139.83517104 C278.81573445 143.22954955 278.85102622 146.62013974 278.88647461 150.0144043 C278.87914436 152.45936007 278.86786097 154.9043067 278.85293579 157.34922791 C278.82974218 162.59697554 278.83383112 167.84393377 278.86323357 173.09161949 C278.90569502 180.67860391 278.89818513 188.26490576 278.87881822 195.85195444 C278.84873264 208.16372447 278.85857376 220.47512149 278.89379883 232.78686523 C278.92791283 244.7403738 278.94305181 256.69366035 278.93286133 268.6472168 C278.93223884 269.38510174 278.93161636 270.12298669 278.93097501 270.88323178 C278.92773549 274.58530481 278.92412492 278.28737736 278.92032993 281.98944986 C278.8893691 312.65978349 278.92399096 343.3297339 279 374 C278.01 374 277.02 374 276 374 C275.67 294.47 275.34 214.94 275 133 C266.1359643 142.93352976 266.1359643 142.93352976 264.87974548 154.05448914 C264.86797211 155.00310485 264.85619873 155.95172057 264.84406859 156.92908221 C264.81576669 160.07481609 264.85100273 163.21645064 264.88647461 166.36206055 C264.87914324 168.62967981 264.86785876 170.8972892 264.85293579 173.16487122 C264.82371478 179.29672955 264.84956351 185.42724863 264.88552547 191.55902457 C264.91372027 197.97591548 264.89095906 204.39262402 264.87367249 210.80952454 C264.85151125 221.5720319 264.86057459 232.33398745 264.89379883 243.09643555 C264.92791864 254.17690182 264.94304993 265.25712854 264.93286133 276.33764648 C264.93223884 277.02176551 264.93161636 277.70588453 264.93097501 278.41073444 C264.92773546 281.84309421 264.9241249 285.27545347 264.92032993 288.70781267 C264.88937468 317.13868822 264.92397925 345.56922306 265 374 C264.01 374 263.02 374 262 374 C261.505 263.615 261.505 263.615 261 151 C252.26494129 160.61767163 252.26494129 160.61767163 250.87974548 171.37113953 C250.86797211 172.2462513 250.85619873 173.12136307 250.84406859 174.02299339 C250.81580419 176.92010178 250.85097495 179.81274432 250.88647461 182.7097168 C250.87914193 184.79999974 250.86785616 186.89027197 250.85293579 188.98051453 C250.8237343 194.62895833 250.84954773 200.27594675 250.88552547 205.92430091 C250.91373507 211.83670657 250.89095535 217.74891502 250.87367249 223.66133118 C250.84868162 234.84553535 250.8692943 246.02916802 250.90644604 257.2133196 C250.94652637 269.95099396 250.93553276 282.68846582 250.92032993 295.42617548 C250.89020969 321.61761835 250.9239654 347.8086653 251 374 C249.68 374 248.36 374 247 374 C247 306.02 247 238.04 247 168 C237.76861579 178.38838074 237.76861579 178.38838074 235.79745483 189.89033508 C235.78891059 190.68956821 235.78036634 191.48880134 235.77156317 192.31225365 C235.75532926 194.94146531 235.80964116 197.56402363 235.86474609 200.19262695 C235.8675722 202.0959966 235.86597302 203.99937712 235.86032104 205.90274048 C235.85746962 211.03294561 235.91596331 216.16077882 235.98606062 221.29043603 C236.04887682 226.66478736 236.05447158 232.03920233 236.0663147 237.41386414 C236.09730784 247.57479267 236.17924781 257.73463613 236.27980959 267.89508837 C236.39186048 279.46938095 236.44663525 291.04372731 236.49676394 302.61842787 C236.6010897 326.41288516 236.77680798 350.20638159 237 374 C235.68 374 234.36 374 233 374 C233 311.96 233 249.92 233 186 C223.77202992 196.25220155 223.77202992 196.25220155 221.75949097 207.20698547 C221.74686317 207.93271466 221.73423537 208.65844385 221.7212249 209.40616482 C221.69154662 211.78658781 221.73177645 214.16012121 221.77294922 216.5402832 C221.76589204 218.26633947 221.75443903 219.99238243 221.7389679 221.71838379 C221.70958909 226.3649674 221.74105101 231.00931165 221.78413153 235.65571237 C221.81871057 240.52576687 221.79638246 245.39556754 221.78030396 250.26567078 C221.75845291 259.47018662 221.78716821 268.67380942 221.834427 277.87820166 C221.88577727 288.36445593 221.88018513 298.85044379 221.87000632 309.33679068 C221.85034926 330.89149143 221.90156237 352.44553607 222 374 C221.01 374 220.02 374 219 374 C218.67 318.23 218.34 262.46 218 205 C210.49581905 213.95557117 210.49581905 213.95557117 209 223.3210907 C208.98908105 223.97569064 208.9781621 224.63029059 208.96691227 225.3047269 C208.94043679 227.45567439 208.96989443 229.60184846 209 231.75268555 C208.99237897 233.31095893 208.98124762 234.86921845 208.96690369 236.42744446 C208.93807324 240.62553025 208.95788445 244.82209921 208.9869194 249.02012992 C209.00891025 253.41908871 208.98549169 257.81780954 208.96704102 262.2167511 C208.93898508 270.53225238 208.95133394 278.84717504 208.97846508 287.16265947 C209.00738559 296.63560876 208.99085882 306.10831187 208.97065353 315.5812639 C208.9301295 335.05432921 208.94622643 354.52697812 209 374 C207.68 374 206.36 374 205 374 C205 323.84 205 273.68 205 222 C194.82808809 234.90362699 194.82808809 234.90362699 193.77294922 249.2355957 C193.76588606 250.60698253 193.75442627 251.97835252 193.7389679 253.34967041 C193.70968131 257.02956029 193.74095893 260.70660806 193.78413153 264.38626504 C193.81879757 268.24735526 193.79636609 272.10813171 193.78030396 275.96928406 C193.75848459 283.2614275 193.78711648 290.55244122 193.834427 297.84442824 C193.88584327 306.15419678 193.88017795 314.46363057 193.87000632 322.7735163 C193.85036858 339.8494175 193.90147626 356.92437976 194 374 C193.01 374 192.02 374 191 374 C191 329.78 191 285.56 191 240 C180.89358321 251.50671344 180.89358321 251.50671344 179.77294922 264.56152344 C179.75612846 266.34905533 179.75612846 266.34905533 179.7389679 268.17269897 C179.71386458 272.06975759 179.75868291 275.96256394 179.8046875 279.859375 C179.80643975 282.57754845 179.79318948 285.29559463 179.78030396 288.01373291 C179.7584923 294.409946 179.78710305 300.80487044 179.834427 307.20090508 C179.88586002 314.4901236 179.88017619 321.77896092 179.87000632 329.06831312 C179.8503734 344.04596969 179.90145436 359.02261906 180 374 C179.01 374 178.02 374 177 374 C176.67 336.05 176.34 298.1 176 259 C167.01407174 269.264055 167.01407174 269.264055 165.88647461 280.7956543 C165.8754068 281.81163193 165.86433899 282.82760956 165.85293579 283.87437439 C165.82716926 287.19237579 165.86418791 290.50639111 165.90234375 293.82421875 C165.89668477 296.14021565 165.88706612 298.45620594 165.87367249 300.77217102 C165.84914585 306.83721487 165.87806361 312.90084672 165.91845703 318.96575928 C165.95018515 325.16667392 165.9308956 331.36741241 165.91601562 337.56835938 C165.89433446 349.71260329 165.92916408 361.85596774 166 374 C164.68 374 163.36 374 162 374 C162 341.99 162 309.98 162 277 C153.31283635 286.50705161 153.31283635 286.50705161 151.88647461 297.14331055 C151.86987289 298.40393059 151.86987289 298.40393059 151.85293579 299.6900177 C151.82724901 302.42394817 151.86411625 305.15300254 151.90234375 307.88671875 C151.89668229 309.79915389 151.88706031 311.711581 151.87367249 313.62397766 C151.84918622 318.62382524 151.87801831 323.62195538 151.91845703 328.62164307 C151.95022852 333.73675167 151.93088694 338.85164886 151.91601562 343.96679688 C151.89435716 353.97830643 151.92909871 363.98874759 152 374 C150.68 374 149.36 374 148 374 C148 347.6 148 321.2 148 294 C144.7 298.29 141.4 302.58 138 307 C136.1925543 309.31645258 134.38122943 311.6298961 132.5625 313.9375 C131.64713107 315.10025699 130.73176663 316.26301752 129.81640625 317.42578125 C129.35766113 318.0079541 128.89891602 318.59012695 128.42626953 319.18994141 C125.94914594 322.33362411 123.47429602 325.47909163 121 328.625 C120.54310791 329.20499756 120.08621582 329.78499512 119.61547852 330.38256836 C117.37565524 333.23008586 115.15783692 336.08975942 113 339 C109.81740149 337.59490901 107.68651534 335.93078658 105.24121094 333.46826172 C104.5107959 332.73760498 103.78038086 332.00694824 103.02783203 331.25415039 C102.27099121 330.48707764 101.51415039 329.72000488 100.734375 328.9296875 C99.67887451 327.87116577 99.67887451 327.87116577 98.60205078 326.79125977 C95.97920778 324.15796606 93.36512394 321.51595966 90.75 318.875 C84.8925 312.97625 79.035 307.0775 73 301 C72.67 324.43 72.34 347.86 72 372 C48.24 372 24.48 372 0 372 C0 249.24 0 126.48 0 0 Z M2 6 C2.4482955 20.71957456 11.6465972 28.15290623 21.55688477 37.83740234 C23.30025215 39.58094122 25.04120877 41.32689345 26.77993774 43.07505798 C31.00102413 47.30659759 35.24652572 51.51210161 39.50427622 55.70663224 C44.4624631 60.59371531 49.39001908 65.51121506 54.31626999 70.43045397 C63.10205107 79.20194989 71.91278033 87.94793572 80.73901367 96.67871094 C89.30531934 105.15245135 97.8570244 113.64053994 106.39135742 122.14648438 C106.91813666 122.67150446 107.4449159 123.19652455 107.98765815 123.73745434 C110.10499505 125.84779713 112.22228485 127.95818716 114.33949933 130.06865277 C123.45743796 139.1568668 132.58658094 148.23382267 141.71775755 157.30873352 C143.19685584 158.77885401 144.67572672 160.24920296 146.15455747 161.71959257 C151.7616742 167.29406525 157.37443415 172.86274669 162.99560928 178.42305183 C164.70095254 180.11130049 166.40461526 181.80124854 168.10651588 183.49296761 C170.41972832 185.79159403 172.73898088 188.08393873 175.06007385 190.37460327 C175.74089966 191.05375144 176.42172547 191.73289962 177.12318236 192.43262804 C177.74187537 193.04055527 178.36056839 193.6484825 178.99800968 194.27483177 C179.53330801 194.80492674 180.06860634 195.33502171 180.62012583 195.88118017 C181.96284163 197.20993432 181.96284163 197.20993432 184 197 C184.99 195.02 185.98 193.04 187 191 C186.10970313 190.11062492 185.21940626 189.22124985 184.3021307 188.30492401 C163.15120963 167.17567772 142.00288622 146.04383521 120.85774228 124.90880761 C118.25308096 122.30539694 115.64839782 119.70200813 113.04370117 117.09863281 C112.52517037 116.58036433 112.00663958 116.06209584 111.47239573 115.52812225 C103.08496997 107.1450435 94.69577833 98.76373408 86.30592858 90.38308138 C77.69221125 81.77872754 69.08040405 73.17246537 60.47035366 64.56444216 C55.16078969 59.25624781 49.84975528 53.94953363 44.53680856 48.64472502 C40.45764072 44.57148603 36.38113698 40.49558912 32.30560493 36.41871262 C30.63720201 34.75058425 28.96794529 33.0833093 27.29776001 31.41696548 C25.01200702 29.13621112 22.72938815 26.85236375 20.44749451 24.56774902 C19.79085939 23.91402675 19.13422428 23.26030448 18.45769113 22.58677244 C14.67399246 18.79092386 11.10402994 14.88472125 7.66004902 10.77691507 C5.91824432 8.91248879 4.08037789 7.46964251 2 6 Z M7 26 C7.79328017 34.32002776 9.65041408 38.97428776 15.65640259 44.73869324 C16.34823179 45.43821226 17.04006099 46.13773128 17.7528547 46.85844785 C20.06133456 49.18167526 22.40034612 51.47139384 24.74072266 53.76245117 C26.40795467 55.42714289 28.07320415 57.09382218 29.73661804 58.7623291 C34.24741855 63.27570802 38.78539418 67.76083151 43.32880449 72.24134994 C47.59485312 76.45678362 51.84009565 80.69302563 56.08552365 84.92920224 C64.49131865 93.31533256 72.91698593 101.68119561 81.35546875 110.03442383 C89.54931376 118.14557183 97.7335883 126.26618276 105.90527344 134.3996582 C106.40955024 134.9015705 106.91382705 135.40348279 107.43338497 135.92060455 C109.96330651 138.43878017 112.49304209 140.95714252 115.02268529 143.47559774 C135.98636435 164.34607914 156.9828001 185.18341466 178 206 C179.53598389 204.61337105 179.53598389 204.61337105 181 203 C181.05511386 199.84980763 179.71673772 198.67408126 177.64901733 196.29498291 C176.60362961 195.24395041 175.54987781 194.2011981 174.48974609 193.16503906 C173.91562988 192.59209106 173.34151367 192.01914307 172.75 191.42883301 C170.84801676 189.53404309 168.93573647 187.64999848 167.0234375 185.765625 C165.6956947 184.44602284 164.36868894 183.12567871 163.04238892 181.80462646 C159.54319906 178.32257157 156.0355544 174.84916483 152.52563477 171.37792969 C146.92723931 165.83863864 141.34125786 160.2868394 135.75612259 154.73418427 C133.81197046 152.80388343 131.86398533 150.8775199 129.91537476 148.95172119 C128.70569997 147.75208479 127.49611107 146.55236179 126.28662109 145.35253906 C125.75231476 144.82654114 125.21800842 144.30054321 124.66751099 143.75860596 C121.91044936 141.01745608 119.29138828 138.21204701 116.75817871 135.262146 C112.27566966 130.08713627 107.42660365 125.28645139 102.58251953 120.453125 C101.54843368 119.41768133 100.51456007 118.38202565 99.48088074 117.34617615 C96.69644957 114.55721992 93.90890582 111.77139495 91.1206193 108.98629379 C88.19812121 106.06634014 85.27807796 103.14393317 82.3576355 100.22192383 C77.46222432 95.32469904 72.56472059 90.42957438 67.66601562 85.53564453 C61.99667942 79.8717707 56.33098333 74.2042747 50.66712296 68.53492546 C45.79920421 63.66247785 40.92935103 58.79197009 36.05785644 53.92309761 C33.14998111 51.01678357 30.24279123 48.10979253 27.33734512 45.2010498 C24.6128814 42.47370996 21.88600716 39.74880398 19.15720558 37.02580452 C18.15373476 36.02366178 17.1511247 35.02065632 16.14941597 34.01675224 C14.78836443 32.65299165 13.42396112 31.29257855 12.05935669 29.93237305 C11.29506411 29.16845749 10.53077152 28.40454193 9.74331856 27.61747742 C8.27417285 25.88664111 8.27417285 25.88664111 7 26 Z M11 43 C11.69172297 57.15063618 19.39694319 63.75892228 29.1875 72.9375 C30.60209353 74.30537837 32.01422465 75.67580804 33.42382812 77.04882812 C38.34198483 81.81200535 43.27089692 86.53977415 48.48838806 90.97549438 C54.21982541 95.98321642 59.53035844 101.41506081 64.89208984 106.81030273 C66.07204311 107.99381826 67.25223573 109.17709518 68.43264771 110.3601532 C70.95923531 112.89325519 73.48430377 115.42785816 76.00822067 117.96362114 C79.99679442 121.97056939 83.98978465 125.97309692 87.98355103 129.97486877 C99.33411511 141.34952842 110.67866574 152.73017478 122.01904297 164.11499023 C128.29344281 170.41389885 134.57140066 176.70923931 140.85323107 183.00073773 C144.8275075 186.98156831 148.79722937 190.9668695 152.7636764 194.95550048 C155.22327761 197.4267893 157.68700867 199.89392756 160.15195847 202.35988045 C161.29780426 203.50788235 162.44191743 204.65761649 163.58420563 205.80915833 C165.1374815 207.37453423 166.69671509 208.93371677 168.25765991 210.49143982 C169.13034704 211.36726935 170.00303417 212.24309889 170.90216637 213.14546871 C172.78306665 215.22077483 172.78306665 215.22077483 175 215 C175.99 212.03 175.99 212.03 177 209 C176.19216285 208.19308464 175.3843257 207.38616928 174.55200863 206.55480194 C154.88532403 186.91032815 135.22153174 167.26296286 115.56075954 147.61257172 C113.66706258 145.71989458 111.77335488 143.8272282 109.87963867 141.93457031 C109.40895771 141.46415166 108.93827675 140.99373301 108.45333273 140.50905925 C100.84189061 132.90196303 93.22868253 125.29663657 85.61481511 117.6919679 C77.79662496 109.88314432 69.98038524 102.07237241 62.16582638 94.25991488 C57.77886019 89.87425102 53.39102161 85.48946815 49.00106621 81.10679626 C44.86626388 76.97879836 40.73383308 72.84844104 36.60318184 68.71628952 C35.08958449 67.20296651 33.5751347 65.69049554 32.05975342 64.17895889 C29.9841908 62.10840265 27.91177348 60.0347463 25.84007263 57.96032715 C25.24569269 57.36886005 24.65131275 56.77739295 24.0389213 56.16800261 C20.3077172 52.42363383 16.80751987 48.53734903 13.38843495 44.505301 C12.93025141 44.00855167 12.47206788 43.51180234 12 43 C11.67 43 11.34 43 11 43 Z M16 63 C15.79290446 69.71882227 17.79884447 74.32369654 22.20610261 79.21187627 C25.43450338 82.58008148 28.75043213 85.85093085 32.08837891 89.11010742 C33.57827349 90.5974612 35.06618483 92.08680385 36.55226135 93.57797241 C40.5796342 97.60792172 44.63409904 101.60956696 48.69408083 105.60662627 C52.9369499 109.79313691 57.1542534 114.00524259 61.37435913 118.2146759 C69.36392439 126.17629663 77.37614788 134.11470229 85.39680994 142.0449813 C94.5293159 151.07680226 103.63620196 160.13427007 112.7410481 169.19396055 C131.46570524 187.82460892 150.22223517 206.42289067 169 225 C169.99 223.68 170.98 222.36 172 221 C170.59879754 217.82716634 168.94854242 215.70831007 166.48754883 213.27636719 C165.41051445 212.20440094 165.41051445 212.20440094 164.3117218 211.11077881 C163.53467392 210.34719055 162.75762604 209.58360229 161.95703125 208.796875 C161.1552092 208.00025452 160.35338715 207.20363403 159.52726746 206.38287354 C156.96037582 203.8337925 154.38692442 201.2914714 151.8125 198.75 C149.25675608 196.22200181 146.7025261 193.69252167 144.15129089 191.15997314 C142.5646798 189.58547555 140.97540406 188.01365686 139.38301086 186.44500732 C138.28233528 185.35412811 138.28233528 185.35412811 137.15942383 184.24121094 C136.52369949 183.61373962 135.88797516 182.98626831 135.23298645 182.33978271 C133.38919554 180.40780946 131.65156071 178.4426427 129.91407776 176.41705322 C125.25883421 171.06668249 120.23313019 166.09301235 115.21533203 161.0859375 C114.14183774 160.01108554 113.06855572 158.93602155 111.99546814 157.86076355 C109.10360349 154.96437185 106.20862348 152.0711135 103.31290293 149.17857742 C100.27829641 146.14651448 97.24614374 143.11199917 94.21359253 140.07788086 C89.12986776 134.99234216 84.04404959 129.90890417 78.95703125 124.82666016 C73.06956923 118.94465978 67.18574593 113.05903795 61.30375969 107.17156219 C56.24900601 102.11227964 51.19231777 97.05493685 46.13398826 91.99922943 C43.11433022 88.98113279 40.09535772 85.96235876 37.07812881 82.9418335 C34.24860594 80.10943451 31.41667214 77.27946892 28.58281136 74.45141029 C27.54063913 73.41056619 26.49932779 72.36885932 25.45891762 71.32625389 C24.04531726 69.90994463 22.62836544 68.49698273 21.21121216 67.08422852 C20.4174222 66.29081558 19.62363224 65.49740265 18.80578804 64.6799469 C17.28903915 62.88647746 17.28903915 62.88647746 16 63 Z M20 80 C21.03670339 92.80193298 27.49011317 98.87308577 36.28393555 107.41918945 C37.67567234 108.80810144 39.06520279 110.19922721 40.45269775 111.59237671 C44.20513971 115.3476749 47.98749277 119.07144764 51.77618384 122.79012322 C55.73794349 126.68915208 59.67119533 130.61673027 63.60762024 134.54130554 C71.05685152 141.95951943 78.53119193 149.35188437 86.01500303 156.73519343 C94.53770885 165.14592625 103.03186309 173.58524693 111.52379549 182.02703154 C128.9843863 199.38324106 146.48034266 216.70342947 164 234 C166.2477975 231.94766315 167.0022242 230.99332739 168 228 C167.439542 227.44046379 166.879084 226.88092758 166.30164242 226.30443573 C152.64355005 212.66845992 138.98825108 199.02969252 125.3360281 185.38784027 C118.73376267 178.79072377 112.13056674 172.19454377 105.52514648 165.60058594 C99.76562578 159.85105498 94.00788491 154.09974853 88.25224453 148.34633303 C85.20667127 145.30205959 82.16023432 142.25866227 79.11166191 139.21739197 C76.23755878 136.35011681 73.36585574 133.480459 70.49591255 130.60902023 C69.44673208 129.56011306 68.39670561 128.51205126 67.34573364 127.46493912 C62.22368399 122.36076699 57.17859585 117.23476606 52.49330807 111.72070312 C49.74421604 108.55299022 46.75840613 105.61585109 43.7890625 102.65625 C43.13545746 102.00168823 42.48185242 101.34712646 41.80844116 100.67272949 C40.44334531 99.30695937 39.07701096 97.94242607 37.70947266 96.57910156 C35.60591462 94.48096379 33.50782954 92.37745702 31.41015625 90.2734375 C30.07844606 88.94238704 28.74642628 87.61164623 27.4140625 86.28125 C26.78496979 85.65013306 26.15587708 85.01901611 25.50772095 84.36877441 C23.12844105 81.40502677 23.12844105 81.40502677 20 80 Z M25 99 C25.12375 100.216875 25.2475 101.43375 25.375 102.6875 C25.44460938 103.37199219 25.51421875 104.05648437 25.5859375 104.76171875 C26.61925266 110.34746959 29.24197581 113.67161901 33.21377563 117.57453918 C33.75042984 118.11375667 34.28708405 118.65297415 34.84000051 119.20853156 C36.63709749 121.01056346 38.44469429 122.80167456 40.25244141 124.59301758 C41.54400476 125.8837346 42.83490765 127.17511281 44.12519836 128.46710205 C47.62861264 131.97137745 51.14120309 135.46632279 54.65549898 138.9596808 C58.32707091 142.61250574 61.99015544 146.27382156 65.65414429 149.93424988 C72.59315427 156.86393361 79.53977655 163.78593415 86.48915803 170.70521516 C94.40064744 178.5831787 102.30362541 186.46965706 110.20589566 194.35686648 C126.46113605 210.58074469 142.72704982 226.79388658 159 243 C161.2477975 240.94766315 162.0022242 239.99332739 163 237 C162.54261664 236.54353844 162.08523329 236.08707687 161.61398983 235.61678314 C150.45944989 224.4843754 139.30771623 213.34916523 128.15905666 202.21086884 C122.76747582 196.82443338 117.37496682 191.43893343 111.98022461 186.05566406 C107.27545269 181.36089283 102.57247074 176.66433694 97.87158543 171.96567392 C95.38492601 169.48031249 92.89740934 166.99582356 90.40774345 164.51347351 C87.62119841 161.73504955 84.83865294 158.95264063 82.05639648 156.16992188 C81.23999695 155.35711761 80.42359741 154.54431335 79.5824585 153.70687866 C75.39566787 149.5125832 71.38316202 145.23463252 67.51643085 140.74367523 C65.60893975 138.55033751 63.60322468 136.47619141 61.54931641 134.41992188 C60.3537059 133.21958313 60.3537059 133.21958313 59.13394165 131.99499512 C58.29825653 131.16133423 57.46257141 130.32767334 56.6015625 129.46875 C55.72599701 128.59222778 54.85043152 127.71570557 53.94833374 126.81262207 C52.1124545 124.97606645 50.27532836 123.1407565 48.43701172 121.30664062 C46.5497666 119.42300025 44.66393414 117.53808835 42.78076172 115.65039062 C40.05701765 112.92050668 37.32987787 110.19406447 34.6015625 107.46875 C33.75373199 106.61889526 32.90590149 105.76904053 32.03237915 104.89343262 C30.86513809 103.7309198 30.86513809 103.7309198 29.67431641 102.54492188 C28.98705475 101.85845581 28.29979309 101.17198975 27.59170532 100.46472168 C26.23787249 98.88714252 26.23787249 98.88714252 25 99 Z M30 119 C29.91986101 123.9457207 30.30716717 127.75946684 33.74047852 131.48608398 C34.3762381 132.17652802 35.01199768 132.86697205 35.66702271 133.57833862 C40.74861326 138.85309702 45.90598728 144.0485437 51.08984375 149.22265625 C52.36119407 150.49468167 53.63239604 151.76685539 54.90345764 153.03916931 C57.55698335 155.69416228 60.21229094 158.34735643 62.86889648 160.99926758 C66.25566535 164.38033978 69.63792393 167.76588258 73.01885128 171.15279484 C75.63973018 173.77730568 78.26300892 176.39940744 80.88699532 179.02081108 C82.13432544 180.26747921 83.38092731 181.51487648 84.62675285 182.76304817 C90.25955337 188.40412954 95.87862668 193.99174925 101.94581604 199.17042542 C106.81323781 203.50563167 111.34111057 208.22091768 115.9375 212.83984375 C117.06927864 213.97349143 118.2012812 215.10691559 119.33349609 216.24012756 C122.28822011 219.19863851 125.23992653 222.16014181 128.190979 225.12231445 C131.21271471 228.15434725 134.23734394 231.18349067 137.26171875 234.21289062 C143.17728805 240.13912967 149.08966729 246.06853842 155 252 C155.99 250.68 156.98 249.36 158 248 C156.41218175 244.14259458 153.95165403 241.70267781 151.02073669 238.77349854 C150.2535657 238.00270592 150.2535657 238.00270592 149.4708963 237.21634173 C147.75672404 235.49653578 146.0354994 233.78396849 144.31420898 232.07128906 C143.08360251 230.83960966 141.85342912 229.60749743 140.62365723 228.37498474 C137.28334446 225.02982353 133.93681338 221.69094736 130.58900714 218.3532877 C127.09081132 214.86386813 123.59788123 211.36918495 120.10426331 207.87518311 C114.23901018 202.01086654 108.369896 196.1504369 102.49829102 190.29248047 C95.70004613 183.5099793 88.90706038 176.72224731 82.11704963 169.93150353 C75.59371802 163.40756269 69.0675391 156.8864784 62.53975105 150.36699677 C59.75707608 147.58786147 56.97526031 144.80787024 54.19408989 142.02722931 C50.92398238 138.75812255 47.65134999 135.49156465 44.37670135 132.22700691 C43.17166898 131.02490768 41.967494 129.82194829 40.76421547 128.61809349 C39.12920222 126.98259335 37.49117263 125.35017785 35.85227966 123.71856689 C34.93400611 122.80196918 34.01573256 121.88537148 33.06963253 120.94099808 C31.3513319 118.88598738 31.3513319 118.88598738 30 119 Z M34 136 C34.12375 137.216875 34.2475 138.43375 34.375 139.6875 C34.44460938 140.37199219 34.51421875 141.05648437 34.5859375 141.76171875 C35.56480996 147.05317085 37.74777507 150.1211195 41.53042603 153.89118958 C41.99357629 154.35690312 42.45672656 154.82261666 42.93391168 155.30244273 C44.48227326 156.85573205 46.0410866 158.39807909 47.60009766 159.94067383 C48.71432343 161.05405312 49.82788849 162.16809396 50.94084167 163.28274536 C53.96080571 166.30356992 56.98992819 169.31505722 60.02077532 172.32495713 C63.1878618 175.47328642 66.3464514 178.63011672 69.50595093 181.78605652 C75.48873104 187.75951337 81.47911719 193.72528186 87.47227132 199.68832844 C94.29551443 206.47803635 101.11023821 213.27626751 107.92425847 220.07522929 C121.94004451 234.05965994 135.96649883 248.03334821 150 262 C152.38862691 259.32419853 152.38862691 259.32419853 152.88272095 255.96551514 C151.84844434 253.66253782 150.67660712 252.3218972 148.87646484 250.55175781 C147.88941055 249.56988495 147.88941055 249.56988495 146.88241577 248.56817627 C145.80753403 247.52122589 145.80753403 247.52122589 144.7109375 246.453125 C143.97428864 245.72309265 143.23763977 244.9930603 142.47866821 244.24090576 C140.117758 241.90341226 137.74696672 239.57626872 135.375 237.25 C133.02614013 234.9363851 130.67948419 232.62059835 128.33560181 230.30194092 C126.87742367 228.86051708 125.41616125 227.42220407 123.95126343 225.98760986 C123.27431427 225.32041931 122.59736511 224.65322876 121.89990234 223.96582031 C121.31445648 223.39164368 120.72901062 222.81746704 120.12582397 222.22589111 C118.26418334 220.27661903 116.50211414 218.28418695 114.7409668 216.24493408 C111.07268971 212.02880337 107.20099407 208.05988966 103.24462891 204.11523438 C102.50394165 203.3727948 101.76325439 202.63035522 101.00012207 201.86541748 C98.57809281 199.43902545 96.15247056 197.01626353 93.7265625 194.59375 C92.03487785 192.90139121 90.34334162 191.20888404 88.65194702 189.51623535 C85.12163768 185.98445704 81.58953888 182.45448089 78.05615234 178.92578125 C73.5162889 174.39164531 68.98097054 169.85299368 64.44695473 165.31301117 C60.96250393 161.8249592 57.47569029 158.33927712 53.98814011 154.85432434 C52.31356679 153.18041994 50.63974104 151.50576734 48.96666336 149.83036804 C46.63984619 147.50102833 44.30987741 145.17488909 41.97900391 142.84960938 C41.28294037 142.15152161 40.58687683 141.45343384 39.86972046 140.73419189 C39.23898621 140.10627747 38.60825195 139.47836304 37.95840454 138.8314209 C37.40796793 138.28136131 36.85753132 137.73130173 36.29041481 137.16457367 C35.16597336 135.88833645 35.16597336 135.88833645 34 136 Z M38 154 C38.15046043 155.67041782 38.34779727 157.33661888 38.5625 159 C38.66691406 159.928125 38.77132812 160.85625 38.87890625 161.8125 C41.81228287 170.15269276 50.65476962 176.7930487 56.79077148 182.90429688 C57.75752407 183.87076673 58.72405521 184.83745813 59.69038391 185.80435181 C62.29095898 188.40521152 64.89458594 191.00299587 67.49880862 193.60020256 C70.22855633 196.32366103 72.95543598 199.0499882 75.68263245 201.77600098 C80.83695698 206.92722852 85.99382326 212.0759036 91.1516276 217.22364664 C97.02791182 223.0887188 102.90132644 228.9566611 108.77451217 234.82483578 C120.8465043 246.88640052 132.92206131 258.94438996 145 271 C147.2477975 268.94766315 148.0022242 267.99332739 149 265 C148.47683701 264.47905762 147.95367401 263.95811523 147.41465759 263.42138672 C142.45494143 258.48181055 137.4977117 253.53975519 132.54317379 248.59498596 C129.99667306 246.05367641 127.44926235 243.51329395 124.8996582 240.97509766 C122.43351795 238.51992136 119.96991699 236.06222208 117.507967 233.60284424 C116.12339044 232.22098095 114.73627877 230.84165925 113.34910583 229.46240234 C109.69468084 225.80829817 106.08254809 222.1674638 102.73022461 218.23242188 C97.25102876 211.85735569 91.17205478 206.0286349 85.2265625 200.09375 C83.89360197 198.76011498 82.56078985 197.42633161 81.2281189 196.09240723 C78.45106289 193.31388469 75.67222534 190.53715989 72.89208984 187.76171875 C69.32076747 184.19613212 65.75400569 180.62602218 62.18853188 177.05458832 C59.44525081 174.30770649 56.69960844 171.56319493 53.953228 168.81941223 C52.63591394 167.50276679 51.31934653 166.1853739 50.00352859 164.86723328 C48.17483739 163.03601935 46.3430011 161.20801265 44.51025391 159.38085938 C43.96380219 158.83238342 43.41735046 158.28390747 42.8543396 157.71881104 C40.77694987 155.1527008 40.77694987 155.1527008 38 154 Z M43 173 C43.103125 174.216875 43.20625 175.43375 43.3125 176.6875 C43.37050781 177.37199219 43.42851563 178.05648437 43.48828125 178.76171875 C44.56051448 183.45171602 47.55029276 186.80057246 50.87794495 190.13191223 C52.05356995 191.3159967 52.05356995 191.3159967 53.25294495 192.52400208 C54.10863571 193.37564438 54.96432648 194.22728668 55.84594727 195.10473633 C56.75025482 196.01254852 57.65456238 196.92036072 58.58627319 197.85568237 C61.05876391 200.33726704 63.53751023 202.81251254 66.01772428 205.28637528 C68.61295425 207.87653438 71.20329279 210.47157786 73.79441833 213.06584167 C78.1428019 217.41785975 82.49537698 221.76565232 86.8503418 226.11108398 C91.88981715 231.13965526 96.92201937 236.1754188 101.95054394 241.21493894 C106.26794479 245.54140287 110.58921473 249.86397331 114.91376919 254.18328685 C117.49693122 256.76332642 120.07871228 259.34470887 122.65701485 261.92960548 C125.52680309 264.80622082 128.40465971 267.67462716 131.28344727 270.54223633 C132.14116226 271.40399979 132.99887726 272.26576324 133.88258362 273.15364075 C134.66351379 273.92893127 135.44444397 274.7042218 136.2490387 275.50300598 C136.92911263 276.18232587 137.60918657 276.86164576 138.30986881 277.56155109 C139.88394571 279.21604297 139.88394571 279.21604297 142 279 C142.66 277.35 143.32 275.7 144 274 C143.1636351 273.16585571 142.3272702 272.33171143 141.46556091 271.47229004 C133.56252473 263.58957451 125.66216758 255.70418261 117.76438808 247.81620026 C113.70452757 243.76154594 109.64374727 239.70782201 105.58081055 235.65625 C101.65583043 231.74217941 97.73333771 227.82563158 93.81251717 223.90739441 C92.32037727 222.41709427 90.82736128 220.92767075 89.33343315 219.43916321 C87.23221161 217.34525926 85.13420015 215.24818661 83.03686523 213.15039062 C82.42618195 212.54330261 81.81549866 211.9362146 81.18630981 211.31072998 C77.49124667 207.60693599 73.99346855 203.78001101 70.5840292 199.81142426 C68.1325454 197.00801809 65.52042084 194.37708952 62.8828125 191.75 C62.34018768 191.20641846 61.79756287 190.66283691 61.23849487 190.1027832 C60.10879036 188.97240614 58.97785421 187.84325867 57.84570312 186.71533203 C56.10427568 184.97934037 54.36835324 183.23796858 52.6328125 181.49609375 C51.52896698 180.39290774 50.42481199 179.29003127 49.3203125 178.1875 C48.80058868 177.66575195 48.28086487 177.14400391 47.74539185 176.60644531 C45.71793134 174.10826742 45.71793134 174.10826742 43 173 Z M47 191 C47.15046043 192.67041782 47.34779727 194.33661888 47.5625 196 C47.66691406 196.928125 47.77132812 197.85625 47.87890625 198.8125 C50.57434035 206.47617327 58.3577335 212.50660606 64.01489258 218.16015625 C64.78323425 218.93185654 65.55157593 219.70355682 66.34320068 220.49864197 C68.85769211 223.02255515 71.37586468 225.54275373 73.89453125 228.0625 C75.65100818 229.82219244 77.40741065 231.5819592 79.16374207 233.34179688 C82.83093892 237.01496065 86.50017578 240.68607267 90.1706543 244.35595703 C93.94430841 248.12952932 97.71455974 251.90644351 101.48120117 255.68701172 C106.03646398 260.25887706 110.59653123 264.82589218 115.16043663 269.38912964 C116.89926235 271.1291388 118.63645901 272.87077745 120.37201881 274.61404419 C122.78735015 277.03910648 125.20885404 279.4578301 127.63208008 281.875 C128.35260056 282.60113998 129.07312103 283.32727997 129.81547546 284.07542419 C130.47282684 284.72858109 131.13017822 285.38173798 131.80744934 286.0546875 C132.37908719 286.62687012 132.95072504 287.19905273 133.53968525 287.78857422 C134.94031769 289.2128237 134.94031769 289.2128237 137 289 C138.67553882 286.24419935 138.67553882 286.24419935 138.77923584 283.10298538 C137.79826583 280.45556403 136.46787089 279.09594808 134.46972656 277.10223389 C133.71252319 276.33946136 132.95531982 275.57668884 132.1751709 274.790802 C131.33877075 273.96361664 130.50237061 273.13643127 129.640625 272.28417969 C128.76426392 271.40577423 127.88790283 270.52736877 126.98498535 269.62234497 C124.58139136 267.21625741 122.17129857 264.81705479 119.75791931 262.42080593 C117.23621323 259.91413119 114.722609 257.39935742 112.20800781 254.88555908 C107.98612176 250.66736479 103.75863947 246.4548481 99.52734375 242.24609375 C94.089031 236.83669285 88.66004944 231.41802616 83.23394775 225.99637985 C78.57540886 221.34181451 73.91261386 216.69151961 69.24913025 212.04190922 C67.74659949 210.54348378 66.24466048 209.04446709 64.74279785 207.54537201 C61.95147003 204.75982815 59.15572247 201.97874733 56.359375 199.19824219 C55.52297485 198.3629599 54.68657471 197.52767761 53.8248291 196.66708374 C53.06762573 195.91559052 52.31042236 195.16409729 51.53027344 194.38983154 C50.8688031 193.73133587 50.20733276 193.07284019 49.52581787 192.39439011 C48.22146755 190.88756673 48.22146755 190.88756673 47 191 Z M52 210 C51.91479693 215.25824665 52.45073418 218.91293179 56.10157776 222.84838867 C56.73583239 223.53734222 57.37008701 224.22629578 58.02356148 224.93612671 C61.08655298 228.1346205 64.17187799 231.30307975 67.31225586 234.42578125 C68.00578156 235.11945297 68.69930725 235.81312469 69.41384888 236.52781677 C71.67848174 238.79175988 73.94662249 241.05215259 76.21484375 243.3125 C77.79689566 244.8926844 79.37872512 246.47309153 80.96034241 248.05371094 C85.10253278 252.19210237 89.24771857 256.32748054 93.39355469 260.46221924 C97.63203643 264.69043019 101.86765171 268.92151052 106.10351562 273.15234375 C114.39955512 281.43769225 122.69876482 289.71985738 131 298 C132.5445831 296.6219965 132.5445831 296.6219965 134 295 C133.86058865 291.23821813 131.72191032 289.36265998 129.14208984 286.81738281 C128.32388763 286.00263489 127.50568542 285.18788696 126.66268921 284.34844971 C125.32532211 283.03901398 125.32532211 283.03901398 123.9609375 281.703125 C122.56365004 280.3159502 121.16636504 278.92877291 119.76922035 277.54145432 C117.80726085 275.59704012 115.83848644 273.65959538 113.86975098 271.7220459 C110.44745108 268.3517303 107.0345848 264.97187726 103.62368774 261.59002686 C101.80936027 259.79252206 99.9919496 257.99812222 98.17098999 256.20733643 C93.82166151 251.90870991 89.65522073 247.54498361 85.67318726 242.90496826 C82.77979014 239.61075857 79.67442049 236.53177201 76.5703125 233.4375 C75.89451141 232.76074219 75.21871033 232.08398438 74.52243042 231.38671875 C73.11025626 229.97387005 71.69684251 228.56225932 70.28222656 227.15185547 C68.10624195 224.98128865 65.93572517 222.8053546 63.765625 220.62890625 C62.38834188 219.25228289 61.01074915 217.8759692 59.6328125 216.5 C58.98184601 215.84700928 58.33087952 215.19401855 57.66018677 214.52124023 C55.20913764 211.46489065 55.20913764 211.46489065 52 210 Z M56 228 C55.72032542 233.74496608 57.1151303 238.22943 60.8046875 242.62289429 C64.70282789 246.89773587 68.8526657 250.9185696 73 254.94921875 C74.51874664 256.45624244 76.03564756 257.96512827 77.55078125 259.4757843 C80.7184581 262.62520182 83.89998087 265.75961639 87.09375 268.88256836 C91.19528888 272.89324131 95.27246059 276.92758234 99.34106445 280.97163677 C103.2199643 284.82583926 107.1089932 288.66974421 111 292.51171875 C111.74459473 293.24800695 112.48918945 293.98429516 113.25634766 294.74289513 C115.35291501 296.81173519 117.45636481 298.87327963 119.5625 300.93237305 C120.18801758 301.55094177 120.81353516 302.1695105 121.45800781 302.80682373 C124.23057831 305.93713795 124.23057831 305.93713795 128 307 C128.66 305.02 129.32 303.04 130 301 C120.50217745 291.47905972 111.00169491 281.96078274 101.49775791 272.44594574 C97.08531469 268.02827243 92.67381116 263.609669 88.2644043 259.18896484 C84.01316289 254.92689899 79.75951987 250.66724398 75.50416374 246.4092865 C73.87690462 244.78017232 72.2505293 243.15017488 70.62503242 241.51930237 C68.3572181 239.24428349 66.08634914 236.97235795 63.81469727 234.70117188 C63.13568863 234.01856796 62.45667999 233.33596405 61.75709534 232.63267517 C61.14148743 232.01844193 60.52587952 231.40420868 59.89161682 230.7713623 C59.35421151 230.2330352 58.8168062 229.6947081 58.26311588 229.14006805 C57.15986568 227.88832937 57.15986568 227.88832937 56 228 Z M60 246 C61.13297173 257.96783074 67.7265751 263.94740123 75.91015625 271.859375 C77.2032741 273.14076192 78.49454122 274.42401894 79.78404236 275.70904541 C82.47498622 278.38176824 85.17963486 281.03941558 87.89672852 283.68554688 C91.38514069 287.08292671 94.84897324 290.50406073 98.30439091 293.93496323 C101.60307274 297.20895403 104.91186154 300.47263964 108.22265625 303.734375 C108.8550075 304.35841972 109.48735874 304.98246445 110.13887215 305.62541962 C111.91923046 307.37804613 113.70643008 309.12334468 115.49633789 310.86621094 C116.02677704 311.38970123 116.55721619 311.91319153 117.10372925 312.45254517 C119.60210712 315.18274854 119.60210712 315.18274854 123 316 C123.66 314.02 124.32 312.04 125 310 C116.67563242 301.65251369 108.34860433 293.30769166 100.01812077 284.96630859 C96.15048451 281.09344248 92.28378854 277.219647 88.41918945 273.34375 C84.69314063 269.60687595 80.96469015 265.87241409 77.23452568 262.13964844 C75.80822463 260.71149248 74.38280737 259.28245336 72.95826912 257.85253906 C70.97065165 255.85771601 68.97998123 253.86599009 66.98852539 251.875 C66.3936734 251.27655273 65.79882141 250.67810547 65.1859436 250.06152344 C62.95743587 247.28594776 62.95743587 247.28594776 60 246 Z M177 256 C178 258 178 258 178 258 Z M65 264 C65.12375 265.216875 65.2475 266.43375 65.375 267.6875 C65.44460938 268.37199219 65.51421875 269.05648438 65.5859375 269.76171875 C66.58511816 275.16295006 68.85536535 278.22570869 72.72509766 282.06567383 C73.20331467 282.54432892 73.68153168 283.02298401 74.17424011 283.5161438 C75.74717102 285.08699476 77.3304379 286.64696782 78.9140625 288.20703125 C80.01045019 289.29782017 81.10617476 290.38927597 82.20126343 291.48136902 C85.07821278 294.34689178 87.96405838 297.20328884 90.85186768 300.05786133 C93.79991425 302.97515997 96.73943327 305.90102343 99.6796875 308.82617188 C105.44482624 314.55918503 111.21939412 320.28258293 117 326 C118.6483633 324.24755753 118.6483633 324.24755753 120 322 C119.78478328 318.71680959 118.44694339 317.08011862 116.15185547 314.82714844 C115.55388153 314.23262878 114.95590759 313.63810913 114.33981323 313.02557373 C113.68884674 312.39322815 113.03788025 311.76088257 112.3671875 311.109375 C111.69712677 310.44593079 111.02706604 309.78248657 110.33670044 309.09893799 C108.18977447 306.97541694 106.03299084 304.8622707 103.875 302.75 C101.74011467 300.65039005 99.60744689 298.54859877 97.47756958 296.44390869 C96.15295142 295.13600988 94.8252488 293.83122444 93.49386597 292.5302124 C89.65881287 288.75582646 86.05727655 284.84908369 82.54293823 280.77471924 C80.78759348 278.75568566 78.96012729 276.83095606 77.0703125 274.9375 C76.420625 274.28652344 75.7709375 273.63554687 75.1015625 272.96484375 C74.44929687 272.31644531 73.79703125 271.66804688 73.125 271 C72.44953125 270.32066406 71.7740625 269.64132812 71.078125 268.94140625 C70.11519531 267.98041016 70.11519531 267.98041016 69.1328125 267 C68.26487061 266.13375 68.26487061 266.13375 67.37939453 265.25 C66.18675088 263.88808385 66.18675088 263.88808385 65 264 Z M69 283 C70.46774845 292.87448573 73.87602418 298.14228178 81.04296875 304.921875 C81.9265657 305.79273743 82.81016266 306.66359985 83.72053528 307.56085205 C86.5222905 310.31259444 89.35378804 313.03121709 92.1875 315.75 C94.10553708 317.61772234 96.01636487 319.49262229 97.92773438 321.3671875 C102.59518554 325.93589693 107.28741147 330.4778884 112 335 C114.2477975 332.94766315 115.0022242 331.99332739 116 329 C110.02254233 322.99942043 104.04242454 317.00151024 98.05884647 311.0070343 C95.28082361 308.22378227 92.5037429 305.43960331 89.72875977 302.65332031 C87.05309648 299.96682933 84.3750314 297.28275482 81.69524956 294.60037231 C80.67086446 293.57413275 79.64736306 292.54701034 78.62474251 291.51901245 C77.19753135 290.08459249 75.76694306 288.65353503 74.33618164 287.22265625 C73.52121719 286.40547119 72.70625275 285.58828613 71.86659241 284.74633789 C70.30431736 282.88613454 70.30431736 282.88613454 69 283 Z " fill="#2253A3" transform="translate(518,0)"/>
<path d="M0 0 C0 123.09 0 246.18 0 373 C-0.99 373 -1.98 373 -3 373 C-3 251.89 -3 130.78 -3 6 C-11.50074342 16.38979752 -13.32682088 19.73734661 -13.12025452 31.8379364 C-13.12832415 33.31588476 -13.1403415 34.79381586 -13.15593141 36.27170402 C-13.18720574 40.30650946 -13.1629407 44.3393127 -13.12913358 48.37402618 C-13.10248976 52.73456098 -13.12801586 57.09483682 -13.14706421 61.45536804 C-13.17295391 69.00138053 -13.16611434 76.54678705 -13.13676643 84.09277916 C-13.09438301 95.00276298 -13.10179187 105.91227099 -13.12118178 116.82229922 C-13.15129911 134.52477306 -13.14139394 152.22698772 -13.10620117 169.92944336 C-13.07210963 187.12121546 -13.05694087 204.31283332 -13.06713867 221.50463867 C-13.06776116 222.56511914 -13.06838364 223.62559961 -13.06902499 224.71821585 C-13.07226441 230.03856847 -13.07587499 235.35892076 -13.07967007 240.67927301 C-13.11065242 284.78627771 -13.07663214 328.89305979 -13 373 C-14.32 373 -15.64 373 -17 373 C-17 257.83 -17 142.66 -17 24 C-27.32932443 36.23493836 -27.32932443 36.23493836 -28.24050903 50.23687744 C-28.24901967 51.63732406 -28.26191786 53.03774959 -28.2787751 54.4381206 C-28.31221269 58.25426814 -28.28408623 62.06777258 -28.2451992 65.883775 C-28.21417557 70.01049304 -28.24123656 74.13689563 -28.2610321 78.2636261 C-28.28742618 85.40262991 -28.27750258 92.54082995 -28.24249649 99.67978668 C-28.19193831 110.0011919 -28.19679645 120.32199455 -28.21492384 130.64348063 C-28.24284465 147.39152314 -28.22631561 164.13921235 -28.18164062 180.88720703 C-28.13835394 197.15059832 -28.11612122 213.41379506 -28.12207031 229.67724609 C-28.12243007 230.68071092 -28.12278983 231.68417575 -28.1231605 232.7180486 C-28.12509486 237.75243319 -28.12744174 242.78681749 -28.12999368 247.8212018 C-28.15061171 289.54761552 -28.0990108 331.27370958 -28 373 C-28.99 373 -29.98 373 -31 373 C-31 263.77 -31 154.54 -31 42 C-41.2432331 53.93985584 -41.2432331 53.93985584 -42.24050903 67.55352783 C-42.25313683 68.86643413 -42.26576463 70.17934043 -42.2787751 71.53203177 C-42.31218709 75.14300505 -42.28410637 78.75118173 -42.2451992 82.36200118 C-42.21415693 86.26786342 -42.24124123 90.17339391 -42.2610321 94.07926941 C-42.28741812 100.83523275 -42.27751232 107.59034655 -42.24249649 114.34626007 C-42.19192444 124.11383143 -42.19679966 133.88076629 -42.21492384 143.64842317 C-42.24284025 159.49801588 -42.22632172 175.3472352 -42.18164062 191.19677734 C-42.13834969 206.58712431 -42.11612186 221.97726567 -42.12207031 237.36767578 C-42.12243007 238.31737469 -42.12278983 239.2670736 -42.1231605 240.24555126 C-42.12509487 245.01022258 -42.12744175 249.77489359 -42.12999368 254.53956461 C-42.15060957 294.02653478 -42.0990198 333.51315912 -42 373 C-42.99 373 -43.98 373 -45 373 C-45 269.38 -45 165.76 -45 59 C-55.0128404 71.35793125 -55.0128404 71.35793125 -56.24050903 84.99043274 C-56.25313683 86.23068952 -56.26576463 87.47094631 -56.2787751 88.74878663 C-56.30354526 92.15335186 -56.28416871 95.55222864 -56.2451992 98.95629299 C-56.21410524 102.64059976 -56.24125428 106.32455939 -56.2610321 110.00888062 C-56.28739558 116.37905977 -56.27753919 122.74833738 -56.24249649 129.11846352 C-56.19188604 138.32820611 -56.19680864 147.53727429 -56.21492384 156.74710777 C-56.24282802 171.69215083 -56.22633867 186.63679772 -56.18164062 201.58178711 C-56.1383379 216.09225416 -56.11612363 230.60250305 -56.12207031 245.11303711 C-56.12243007 246.00870737 -56.12278983 246.90437764 -56.1231605 247.82718942 C-56.1250949 252.32087684 -56.12744178 256.81456392 -56.12999368 261.30825102 C-56.15060363 298.53900528 -56.09904476 335.76938128 -56 373 C-56.99 373 -57.98 373 -59 373 C-59.33 275.65 -59.66 178.3 -60 78 C-69.03168597 89.53613701 -69.03168597 89.53613701 -70.12025452 102.18682861 C-70.13202789 103.35272703 -70.14380127 104.51862545 -70.15593141 105.71985412 C-70.17934975 108.92051523 -70.16304119 112.11798313 -70.12913358 115.31845355 C-70.10239808 118.78259497 -70.12804171 122.24641847 -70.14706421 125.71055603 C-70.17290841 131.70036973 -70.16616094 137.68941916 -70.13676643 143.67920685 C-70.09431652 152.33908797 -70.10181164 160.99837087 -70.12118178 169.65830824 C-70.15127192 183.71096141 -70.1414215 197.76328781 -70.10620117 211.81591797 C-70.07209046 225.46017454 -70.05694714 239.10423664 -70.06713867 252.74853516 C-70.06776116 253.59070222 -70.06838364 254.43286929 -70.06902499 255.30055657 C-70.0722645 259.52580142 -70.07587507 263.75104585 -70.07967007 267.97629023 C-70.110634 302.98432364 -70.07667201 337.99204306 -70 373 C-70.99 373 -71.98 373 -73 373 C-73.33 281.59 -73.66 190.18 -74 96 C-82.93952816 107.23186995 -82.93952816 107.23186995 -84.12025452 119.503479 C-84.13202789 120.59587348 -84.14380127 121.68826795 -84.15593141 122.81376529 C-84.18425511 126.43988772 -84.14897797 130.06246102 -84.11352539 133.68847656 C-84.12085593 136.30106446 -84.1321396 138.91364379 -84.14706421 141.52619934 C-84.17289707 147.13297449 -84.1661727 152.73893295 -84.13676643 158.34568024 C-84.09429976 166.45172994 -84.10181657 174.55714089 -84.12118178 182.66325077 C-84.15126512 195.81745453 -84.14142843 208.97130913 -84.10620117 222.12548828 C-84.07208565 234.89670146 -84.0569487 247.66770684 -84.06713867 260.43896484 C-84.06776116 261.22736599 -84.06838364 262.01576714 -84.06902499 262.82805923 C-84.07226452 266.78359081 -84.07587509 270.73912195 -84.07967007 274.69465303 C-84.11062939 307.4632487 -84.07668206 340.23147662 -84 373 C-84.99 373 -85.98 373 -87 373 C-87.33 287.53 -87.66 202.06 -88 114 C-96.97815617 124.24066264 -96.97815617 124.24066264 -98.12025452 135.73783875 C-98.13202789 136.7599584 -98.14380127 137.78207806 -98.15593141 138.83517104 C-98.18426555 142.22954955 -98.14897378 145.62013974 -98.11352539 149.0144043 C-98.12085564 151.45936007 -98.13213903 153.9043067 -98.14706421 156.34922791 C-98.17025782 161.59697554 -98.16616888 166.84393377 -98.13676643 172.09161949 C-98.09430498 179.67860391 -98.10181487 187.26490576 -98.12118178 194.85195444 C-98.15126736 207.16372447 -98.14142624 219.47512149 -98.10620117 231.78686523 C-98.07208717 243.7403738 -98.05694819 255.69366035 -98.06713867 267.6472168 C-98.06776116 268.38510174 -98.06838364 269.12298669 -98.06902499 269.88323178 C-98.07226451 273.58530481 -98.07587508 277.28737736 -98.07967007 280.98944986 C-98.1106309 311.65978349 -98.07600904 342.3297339 -98 373 C-98.99 373 -99.98 373 -101 373 C-101.33 293.47 -101.66 213.94 -102 132 C-110.8640357 141.93352976 -110.8640357 141.93352976 -112.12025452 153.05448914 C-112.13202789 154.00310485 -112.14380127 154.95172057 -112.15593141 155.92908221 C-112.18423331 159.07481609 -112.14899727 162.21645064 -112.11352539 165.36206055 C-112.12085676 167.62967981 -112.13214124 169.8972892 -112.14706421 172.16487122 C-112.17628522 178.29672955 -112.15043649 184.42724863 -112.11447453 190.55902457 C-112.08627973 196.97591548 -112.10904094 203.39262402 -112.12632751 209.80952454 C-112.14848875 220.5720319 -112.13942541 231.33398745 -112.10620117 242.09643555 C-112.07208136 253.17690182 -112.05695007 264.25712854 -112.06713867 275.33764648 C-112.06776116 276.02176551 -112.06838364 276.70588453 -112.06902499 277.41073444 C-112.07226454 280.84309421 -112.0758751 284.27545347 -112.07967007 287.70781267 C-112.11062532 316.13868822 -112.07602075 344.56922306 -112 373 C-112.99 373 -113.98 373 -115 373 C-115.33 299.41 -115.66 225.82 -116 150 C-124.73505871 159.61767163 -124.73505871 159.61767163 -126.12025452 170.37113953 C-126.13202789 171.2462513 -126.14380127 172.12136307 -126.15593141 173.02299339 C-126.18419581 175.92010178 -126.14902505 178.81274432 -126.11352539 181.7097168 C-126.12085807 183.79999974 -126.13214384 185.89027197 -126.14706421 187.98051453 C-126.1762657 193.62895833 -126.15045227 199.27594675 -126.11447453 204.92430091 C-126.08626493 210.83670657 -126.10904465 216.74891502 -126.12632751 222.66133118 C-126.15131838 233.84553535 -126.1307057 245.02916802 -126.09355396 256.2133196 C-126.05347363 268.95099396 -126.06446724 281.68846582 -126.07967007 294.42617548 C-126.10979031 320.61761835 -126.0760346 346.8086653 -126 373 C-127.32 373 -128.64 373 -130 373 C-130 305.02 -130 237.04 -130 167 C-139.23138421 177.38838074 -139.23138421 177.38838074 -141.20254517 188.89033508 C-141.21536154 190.08918478 -141.21536154 190.08918478 -141.22843683 191.31225365 C-141.24467074 193.94146531 -141.19035884 196.56402363 -141.13525391 199.19262695 C-141.1324278 201.0959966 -141.13402698 202.99937712 -141.13967896 204.90274048 C-141.14253038 210.03294561 -141.08403669 215.16077882 -141.01393938 220.29043603 C-140.95112318 225.66478736 -140.94552842 231.03920233 -140.9336853 236.41386414 C-140.90269216 246.57479267 -140.82075219 256.73463613 -140.72019041 266.89508837 C-140.60813952 278.46938095 -140.55336475 290.04372731 -140.50323606 301.61842787 C-140.3989103 325.41288516 -140.22319202 349.20638159 -140 373 C-141.32 373 -142.64 373 -144 373 C-144 310.96 -144 248.92 -144 185 C-153.22797008 195.25220155 -153.22797008 195.25220155 -155.24050903 206.20698547 C-155.25313683 206.93271466 -155.26576463 207.65844385 -155.2787751 208.40616482 C-155.30845338 210.78658781 -155.26822355 213.16012121 -155.22705078 215.5402832 C-155.23410796 217.26633947 -155.24556097 218.99238243 -155.2610321 220.71838379 C-155.29041091 225.3649674 -155.25894899 230.00931165 -155.21586847 234.65571237 C-155.18128943 239.52576687 -155.20361754 244.39556754 -155.21969604 249.26567078 C-155.24154709 258.47018662 -155.21283179 267.67380942 -155.165573 276.87820166 C-155.11422273 287.36445593 -155.11981487 297.85044379 -155.12999368 308.33679068 C-155.14965074 329.89149143 -155.09843763 351.44553607 -155 373 C-155.99 373 -156.98 373 -158 373 C-158.33 317.23 -158.66 261.46 -159 204 C-166.50418095 212.95557117 -166.50418095 212.95557117 -168 222.3210907 C-168.01091895 222.97569064 -168.0218379 223.63029059 -168.03308773 224.3047269 C-168.05956321 226.45567439 -168.03010557 228.60184846 -168 230.75268555 C-168.00762103 232.31095893 -168.01875238 233.86921845 -168.03309631 235.42744446 C-168.06192676 239.62553025 -168.04211555 243.82209921 -168.0130806 248.02012992 C-167.99108975 252.41908871 -168.01450831 256.81780954 -168.03295898 261.2167511 C-168.06101492 269.53225238 -168.04866606 277.84717504 -168.02153492 286.16265947 C-167.99261441 295.63560876 -168.00914118 305.10831187 -168.02934647 314.5812639 C-168.0698705 334.05432921 -168.05377357 353.52697812 -168 373 C-169.32 373 -170.64 373 -172 373 C-172 322.84 -172 272.68 -172 221 C-182.17191191 233.90362699 -182.17191191 233.90362699 -183.22705078 248.2355957 C-183.23411394 249.60698253 -183.24557373 250.97835252 -183.2610321 252.34967041 C-183.29031869 256.02956029 -183.25904107 259.70660806 -183.21586847 263.38626504 C-183.18120243 267.24735526 -183.20363391 271.10813171 -183.21969604 274.96928406 C-183.24151541 282.2614275 -183.21288352 289.55244122 -183.165573 296.84442824 C-183.11415673 305.15419678 -183.11982205 313.46363057 -183.12999368 321.7735163 C-183.14963142 338.8494175 -183.09852374 355.92437976 -183 373 C-183.99 373 -184.98 373 -186 373 C-186 328.78 -186 284.56 -186 239 C-196.10641679 250.50671344 -196.10641679 250.50671344 -197.22705078 263.56152344 C-197.24387154 265.34905533 -197.24387154 265.34905533 -197.2610321 267.17269897 C-197.28613542 271.06975759 -197.24131709 274.96256394 -197.1953125 278.859375 C-197.19356025 281.57754845 -197.20681052 284.29559463 -197.21969604 287.01373291 C-197.2415077 293.409946 -197.21289695 299.80487044 -197.165573 306.20090508 C-197.11413998 313.4901236 -197.11982381 320.77896092 -197.12999368 328.06831312 C-197.1496266 343.04596969 -197.09854564 358.02261906 -197 373 C-197.99 373 -198.98 373 -200 373 C-200.33 335.05 -200.66 297.1 -201 258 C-209.98592826 268.264055 -209.98592826 268.264055 -211.11352539 279.7956543 C-211.1245932 280.81163193 -211.13566101 281.82760956 -211.14706421 282.87437439 C-211.17283074 286.19237579 -211.13581209 289.50639111 -211.09765625 292.82421875 C-211.10331523 295.14021565 -211.11293388 297.45620594 -211.12632751 299.77217102 C-211.15085415 305.83721487 -211.12193639 311.90084672 -211.08154297 317.96575928 C-211.04981485 324.16667392 -211.0691044 330.36741241 -211.08398438 336.56835938 C-211.10566554 348.71260329 -211.07083592 360.85596774 -211 373 C-212.32 373 -213.64 373 -215 373 C-215 340.99 -215 308.98 -215 276 C-223.68716365 285.50705161 -223.68716365 285.50705161 -225.11352539 296.14331055 C-225.1245932 296.98372391 -225.13566101 297.82413727 -225.14706421 298.6900177 C-225.17275099 301.42394817 -225.13588375 304.15300254 -225.09765625 306.88671875 C-225.10331771 308.79915389 -225.11293969 310.711581 -225.12632751 312.62397766 C-225.15081378 317.62382524 -225.12198169 322.62195538 -225.08154297 327.62164307 C-225.04977148 332.73675167 -225.06911306 337.85164886 -225.08398438 342.96679688 C-225.10564284 352.97830643 -225.07090129 362.98874759 -225 373 C-226.32 373 -227.64 373 -229 373 C-229 346.6 -229 320.2 -229 293 C-232.3 297.29 -235.6 301.58 -239 306 C-241.25523353 308.89034493 -243.51934641 311.7731015 -245.78930664 314.65185547 C-246.25071045 315.23725098 -246.71211426 315.82264648 -247.1875 316.42578125 C-247.64640625 317.0079541 -248.1053125 317.59012695 -248.578125 318.18994141 C-250.05803318 320.07387672 -251.52981467 321.96393821 -253 323.85546875 C-253.49185791 324.48654541 -253.98371582 325.11762207 -254.49047852 325.76782227 C-255.42799632 326.9710782 -256.36351096 328.17589867 -257.29663086 329.38256836 C-259.69753477 332.45791913 -262.17247034 335.31023861 -265 338 C-263.00386732 331.2813095 -260.2708579 325.19265192 -257 319 C-256.34 319 -255.68 319 -255 319 C-254.9175 318.154375 -254.835 317.30875 -254.75 316.4375 C-254.02237214 313.10253899 -252.83111477 310.8121275 -251.11425781 307.89770508 C-246.21453778 299.55293649 -241.75447238 290.91687189 -238 282 C-237.34 282 -236.68 282 -236 282 C-235.9175 281.154375 -235.835 280.30875 -235.75 279.4375 C-235.02026608 276.09288619 -233.81855977 273.7864307 -232.09667969 270.86254883 C-226.74431683 261.77234931 -222.09089468 252.30748778 -217.70214844 242.72314453 C-215.98844907 238.99945199 -214.15671196 235.49342407 -212 232 C-206.19518713 221.54876264 -200.99690453 210.85763563 -196 200 C-195.34 200 -194.68 200 -194 200 C-193.95875 199.195625 -193.9175 198.39125 -193.875 197.5625 C-191.37819801 187.39694903 -182.53071386 180.11206859 -175.33837891 172.98193359 C-174.1577342 171.80049664 -172.97774416 170.61840515 -171.7983551 169.43571472 C-168.61290177 166.24515634 -165.41825297 163.06395665 -162.22166872 159.88455534 C-158.86641202 156.54441479 -155.51934024 153.19609075 -152.17123413 149.8487854 C-146.54917919 144.23041515 -140.92153422 138.61769628 -135.29003906 133.00878906 C-128.07803446 125.8256544 -120.87531175 118.63328717 -113.67550087 111.43793297 C-107.46453689 105.23096028 -101.24932436 99.0282467 -95.03343153 92.8262105 C-93.04559755 90.84245913 -91.05833811 88.85813359 -89.07115555 86.87372971 C-85.93976588 83.74726431 -82.80572528 80.62347908 -79.66967583 77.501688 C-78.52404813 76.36054979 -77.37923115 75.21859696 -76.23531914 74.07573891 C-70.87516057 68.72162239 -65.49952535 63.44879978 -59.74119949 58.51758575 C-56.99568412 56.1246635 -54.43623487 53.56021295 -51.87524414 50.97290039 C-51.3197287 50.41592468 -50.76421326 49.85894897 -50.19186401 49.28509521 C-49.0029646 48.09242998 -47.81521997 46.89861264 -46.62855721 45.703722 C-44.75238454 43.81465939 -42.8729946 41.92884971 -40.99278259 40.04380798 C-37.0131837 36.05286043 -33.03757201 32.05795576 -29.0625 28.0625 C-24.4300568 23.40646154 -19.79599691 18.75205575 -15.15774345 14.10180473 C-13.30266581 12.24022716 -11.45061239 10.3756757 -9.59864807 8.51100159 C-8.47224319 7.38096771 -7.34569966 6.25107202 -6.21899414 5.12133789 C-5.70216568 4.59934311 -5.18533722 4.07734833 -4.65284729 3.53953552 C-1.11384324 0 -1.11384324 0 0 0 Z M-200 255 C-199 257 -199 257 -199 257 Z " fill="#FAE269" transform="translate(895,1)"/>
<path d="M0 0 C3.63 0 7.26 0 11 0 C18.21857906 13.56028083 25.18090798 27.23466709 32 41 C39.21869777 27.43949616 46.17664182 13.76346584 53 0 C56.63 0 60.26 0 64 0 C64 18.48 64 36.96 64 56 C60.7 56 57.4 56 54 56 C53.505 35.21 53.505 35.21 53 14 C46.07 27.86 39.14 41.72 32 56 C30.68 56 29.36 56 28 56 C26.15102959 52.4486049 24.30381614 48.89630135 22.45800781 45.34326172 C21.53275908 43.56303035 20.6062464 41.78345607 19.6796875 40.00390625 C15.02684118 31.04470217 10.51621244 22.03242488 6 13 C5.67 27.19 5.34 41.38 5 56 C3.35 56 1.7 56 0 56 C0 37.52 0 19.04 0 0 Z " fill="#2253A4" transform="translate(8,456)"/>
<path d="M0 0 C31.55 0 31.55 0 37.875 5.5 C40.94786398 9.11513409 41.35982878 12.17531461 41.2734375 16.875 C40.80336651 20.52812309 39.41344089 23.23678506 37 26 C34.27555378 28.05698724 31.51779855 30 28 30 C28.64231567 30.85380249 28.64231567 30.85380249 29.29760742 31.72485352 C31.26177049 34.33675273 33.22464365 36.94961866 35.1875 39.5625 C35.86103516 40.45775391 36.53457031 41.35300781 37.22851562 42.27539062 C40.88225345 47.14110002 44.489084 52.0301791 48 57 C43.55793671 58.2617821 39.29361398 58.9618597 35 57 C29.8560982 52.23311763 26.17269747 46.06821127 22.43310547 40.18603516 C20.92260419 37.80510846 20.92260419 37.80510846 18.59765625 35.01171875 C17 33 17 33 17 31 C15.02 31 13.04 31 11 31 C11 39.58 11 48.16 11 57 C7.37 57 3.74 57 0 57 C0 38.19 0 19.38 0 0 Z M11 4 C11 11.92 11 19.84 11 28 C17.15138571 28 20.81317396 27.9639006 26 25 C28.60283774 22.33367841 29.86971037 20.5390462 30.1875 16.78515625 C29.9594516 12.50212222 29.33594251 10.42434843 26.625 7 C21.16968906 2.84357261 18.82911392 4 11 4 Z " fill="#2253A4" transform="translate(1036,455)"/>
<path d="M0 0 C31.55 0 31.55 0 37.875 5.5 C40.94786398 9.11513409 41.35982878 12.17531461 41.2734375 16.875 C40.80336651 20.52812309 39.41344089 23.23678506 37 26 C34.27555378 28.05698724 31.51779855 30 28 30 C28.64231567 30.85380249 28.64231567 30.85380249 29.29760742 31.72485352 C31.26177049 34.33675273 33.22464365 36.94961866 35.1875 39.5625 C35.86103516 40.45775391 36.53457031 41.35300781 37.22851562 42.27539062 C40.88225345 47.14110002 44.489084 52.0301791 48 57 C43.55793671 58.2617821 39.29361398 58.9618597 35 57 C29.8560982 52.23311763 26.17269747 46.06821127 22.43310547 40.18603516 C20.92260419 37.80510846 20.92260419 37.80510846 18.59765625 35.01171875 C17 33 17 33 17 31 C15.02 31 13.04 31 11 31 C11 39.58 11 48.16 11 57 C7.37 57 3.74 57 0 57 C0 38.19 0 19.38 0 0 Z M11 4 C11 11.92 11 19.84 11 28 C17.15138571 28 20.81317396 27.9639006 26 25 C28.60283774 22.33367841 29.86971037 20.5390462 30.1875 16.78515625 C29.9594516 12.50212222 29.33594251 10.42434843 26.625 7 C21.16968906 2.84357261 18.82911392 4 11 4 Z " fill="#2253A4" transform="translate(606,455)"/>
<path d="M0 0 C7.50161263 4.99665717 12.21660365 12.11904646 14 21 C14.66997353 30.71461616 12.24494794 38.51974571 5.9609375 46.0234375 C-0.52567358 52.56173473 -8.09641838 55.27925124 -17.25 55.375 C-27.11558463 55.21073463 -34.03964112 52.71331859 -41.2421875 45.93359375 C-48.13451205 38.35203675 -49.42113652 31.70888493 -49.34765625 21.62109375 C-48.61095234 13.94778448 -44.88585639 7.90488033 -39 3 C-28.17148145 -5.90229169 -12.20163598 -7.26493167 0 0 Z M-30.75 4.3125 C-37.99413394 12.96521554 -37.916276 23.24783386 -37 34 C-35.66013165 40.46526838 -33.01916685 44.92573122 -27.7109375 48.87890625 C-22.84572772 52.06684051 -19.21539526 52.33759582 -13.5 51.59765625 C-7.9524079 50.27143501 -4.93256957 47.31063832 -1.6875 42.75 C2.77660302 33.89843092 3.12977714 23.70660854 0.75390625 14.203125 C-1.00737118 9.05617956 -3.67388596 5.2027546 -7.6875 1.5625 C-16.10199863 -2.40660313 -23.52526101 -1.76284869 -30.75 4.3125 Z " fill="#2253A4" transform="translate(720,458)"/>
<path d="M0 0 C7.50161263 4.99665717 12.21660365 12.11904646 14 21 C14.66997353 30.71461616 12.24494794 38.51974571 5.9609375 46.0234375 C-0.52567358 52.56173473 -8.09641838 55.27925124 -17.25 55.375 C-27.11558463 55.21073463 -34.03964112 52.71331859 -41.2421875 45.93359375 C-48.13451205 38.35203675 -49.42113652 31.70888493 -49.34765625 21.62109375 C-48.61095234 13.94778448 -44.88585639 7.90488033 -39 3 C-28.17148145 -5.90229169 -12.20163598 -7.26493167 0 0 Z M-30.75 4.3125 C-37.99413394 12.96521554 -37.916276 23.24783386 -37 34 C-35.66013165 40.46526838 -33.01916685 44.92573122 -27.7109375 48.87890625 C-22.84572772 52.06684051 -19.21539526 52.33759582 -13.5 51.59765625 C-7.9524079 50.27143501 -4.93256957 47.31063832 -1.6875 42.75 C2.77660302 33.89843092 3.12977714 23.70660854 0.75390625 14.203125 C-1.00737118 9.05617956 -3.67388596 5.2027546 -7.6875 1.5625 C-16.10199863 -2.40660313 -23.52526101 -1.76284869 -30.75 4.3125 Z " fill="#2253A4" transform="translate(146,458)"/>
<path d="M0 0 C3.68992326 2.59200131 6.05644119 5.01783417 8.546875 8.7890625 C8.216875 9.7790625 7.886875 10.7690625 7.546875 11.7890625 C5.484375 12.4765625 5.484375 12.4765625 3.546875 12.7890625 C3.17175781 12.24636719 2.79664063 11.70367187 2.41015625 11.14453125 C-1.0559893 6.29891216 -3.61992967 2.72164669 -9.63671875 1.2578125 C-16.29935064 0.17682386 -21.72043702 1.16165476 -27.453125 4.7890625 C-32.46365009 9.66500737 -35.08550377 15.14277284 -35.7890625 22.12109375 C-35.88224725 30.42385503 -35.52100373 37.11357656 -29.91015625 43.5625 C-24.94602095 48.21992672 -19.61591094 50.45613766 -12.890625 51.1640625 C-8.72103325 50.87843243 -8.72103325 50.87843243 -2.453125 47.7890625 C-2.123125 41.1890625 -1.793125 34.5890625 -1.453125 27.7890625 C-5.083125 27.7890625 -8.713125 27.7890625 -12.453125 27.7890625 C-12.453125 26.7990625 -12.453125 25.8090625 -12.453125 24.7890625 C-5.193125 24.7890625 2.066875 24.7890625 9.546875 24.7890625 C9.546875 33.0390625 9.546875 41.2890625 9.546875 49.7890625 C-2.98049237 55.35678133 -17.88740055 57.86983828 -31.203125 52.7890625 C-38.72710182 49.00581992 -44.74882206 43.35195134 -47.828125 35.40625 C-49.70926659 27.5289696 -49.62226943 19.05261041 -45.7734375 11.8125 C-40.92089979 4.37577061 -35.1963126 -0.9967565 -26.62109375 -3.8125 C-17.05001915 -5.57150831 -8.50842585 -4.85210231 0 0 Z " fill="#2253A4" transform="translate(301.453125,458.2109375)"/>
<path d="M0 0 C0.33 0 0.66 0 1 0 C1 117.15 1 234.3 1 355 C-0.32 355 -1.64 355 -3 355 C-3.0755252 290.12459636 -2.92326603 225.24969002 -2.71246719 160.37467957 C-2.70249132 157.2964987 -2.69254254 154.21831775 -2.68261719 151.14013672 C-2.68015133 150.37639335 -2.67768547 149.61264998 -2.67514488 148.82576287 C-2.63469607 136.23249755 -2.60220975 123.63922302 -2.57250018 111.0459283 C-2.54145964 97.95097191 -2.50296536 84.85605371 -2.45720994 71.76114035 C-2.43193767 64.47183119 -2.40998115 57.18254541 -2.39665604 49.89320374 C-2.3842645 43.11573333 -2.36194093 36.33837111 -2.33261681 29.56094933 C-2.32350953 27.07516688 -2.31784352 24.58936921 -2.31578636 22.10357094 C-2.31248913 18.72791427 -2.29708588 15.35253038 -2.2784729 11.97692871 C-2.28040763 10.98424122 -2.28234237 9.99155374 -2.28433573 8.96878481 C-2.27687024 8.07137182 -2.26940475 7.17395883 -2.26171303 6.2493515 C-2.25943471 5.47132722 -2.25715638 4.69330295 -2.25480902 3.89170218 C-2 2 -2 2 0 0 Z " fill="#2253A3" transform="translate(881,19)"/>
<path d="M0 0 C26 0 26 0 35 4 C39.27701226 8.49086287 40.37666484 11.55926992 40.26953125 17.6171875 C39.74962243 22.21348284 37.94357826 25.22930067 34.55078125 28.3203125 C27.72365925 32.7080808 18.69282999 31.24040094 11 31 C11 39.25 11 47.5 11 56 C7.37 56 3.74 56 0 56 C0 37.52 0 19.04 0 0 Z M11 4 C11 11.59 11 19.18 11 27 C19.52175402 28.42125923 19.52175402 28.42125923 26 25 C28.44340191 22.06791771 28.96659534 20.31177679 29.375 16.5 C28.87378381 11.82198222 27.5234556 9.33302365 24 6.25 C19.3810954 3.36318463 16.99831738 4 11 4 Z " fill="#2253A4" transform="translate(405,456)"/>
<path d="M0 0 C0.33 0 0.66 0 1 0 C1 122.43 1 244.86 1 371 C0.01 371 -0.98 371 -2 371 C-2.02318636 335.99512088 -2.04065686 300.99024359 -2.05106533 265.98535837 C-2.05231517 261.79753057 -2.05360957 257.60970278 -2.05493164 253.421875 C-2.05519395 252.58859325 -2.05545626 251.7553115 -2.05572652 250.89677879 C-2.05948254 239.25711068 -2.06562743 227.61744603 -2.0737354 215.97778016 C-2.16467391 85.31192506 -2.16467391 85.31192506 -1.59018397 36.49288464 C-1.55888733 33.82192987 -1.52908639 31.15096126 -1.49940681 28.4799881 C-1.4538159 24.4623971 -1.40223936 20.44493377 -1.344661 16.42749691 C-1.3246325 15.00240767 -1.30604002 13.5772974 -1.28900599 12.15216923 C-1.26565445 10.25866737 -1.23523559 8.36525642 -1.20433044 6.47186279 C-1.18897468 5.42898479 -1.17361891 4.3861068 -1.15779781 3.31162643 C-1 1 -1 1 0 0 Z " fill="#2253A4" transform="translate(894,3)"/>
<path d="M0 0 C7.36610059 5.42699035 7.36610059 5.42699035 8.84375 9.09375 C8.8953125 9.7228125 8.946875 10.351875 9 11 C8.34 11.66 7.68 12.32 7 13 C5.05078125 12.8671875 5.05078125 12.8671875 3 12 C1.54296875 10.2578125 1.54296875 10.2578125 0.1875 8.125 C-2.74518556 4.05141931 -4.99349507 2.25162623 -10 1 C-17.35595908 0.84796905 -22.80516594 2.48977324 -28.625 7.0625 C-33.76868303 13.42442375 -35.66482879 20.19754065 -35.3203125 28.328125 C-34.45681507 35.5309572 -32.19865109 40.92224777 -27 46 C-22.11933266 49.29161286 -16.83279105 50.41112184 -11 50 C-3.85100871 47.84181395 0.26005435 44.35790761 4 38 C5.9375 38.3125 5.9375 38.3125 8 39 C8.33 39.99 8.66 40.98 9 42 C4.73529789 49.04037263 -1.43259974 52.47753325 -9 55 C-19.74706566 55.67008083 -29.54445869 55.39009236 -38.3671875 48.578125 C-44.95079332 42.21502273 -47.96853069 34.74414428 -48.375 25.6875 C-48.17196311 16.96885713 -44.9379555 10.07968754 -39 3.7578125 C-28.63110757 -5.35547186 -11.7981971 -7.88846317 0 0 Z " fill="#2253A4" transform="translate(1257,458)"/>
<path d="M0 0 C0.33 0 0.66 0 1 0 C1 110.88 1 221.76 1 336 C0.01 336 -0.98 336 -2 336 C-2.0228839 294.33389232 -2.04050716 252.66778537 -2.05106533 211.00167265 C-2.05231605 206.083716 -2.05361037 201.16575937 -2.05493164 196.24780273 C-2.05519395 195.26871726 -2.05545626 194.28963179 -2.05572652 193.28087706 C-2.060079 177.4232147 -2.06796425 161.56555596 -2.0771528 145.70789575 C-2.08650104 129.43907364 -2.0920581 113.17025344 -2.09408849 96.90142876 C-2.09546128 86.86098493 -2.09979872 76.82055134 -2.10791647 66.78011066 C-2.11319835 59.89701201 -2.114801 53.01391866 -2.11350138 46.13081812 C-2.11286026 42.15839621 -2.11385001 38.18599219 -2.11920547 34.21357346 C-2.12407387 30.57588301 -2.12431601 26.9382225 -2.12089889 23.30053068 C-2.12027674 21.36313557 -2.12458766 19.42574081 -2.12908131 17.48835081 C-2.10259274 2.10259274 -2.10259274 2.10259274 0 0 Z " fill="#2253A3" transform="translate(866,38)"/>
<path d="M0 0 C2.54644389 1.54720642 4.20845369 2.84806163 6.08984375 5.125 C6.82654297 5.98931641 6.82654297 5.98931641 7.578125 6.87109375 C8.85916977 8.81143843 9.35291572 10.41556171 9.77734375 12.6875 C7.79734375 13.3475 5.81734375 14.0075 3.77734375 14.6875 C3.49761719 14.14480469 3.21789063 13.60210937 2.9296875 13.04296875 C0.77937844 9.2056005 -0.73428495 6.99158025 -4.53515625 4.625 C-9.06672853 3.47290535 -11.66764766 3.70058147 -16.22265625 4.6875 C-19.42308169 6.39327941 -19.42308169 6.39327941 -20.22265625 9.4375 C-20.22265625 13.15179239 -19.30049238 14.41721183 -16.89404297 17.14892578 C-13.76690489 20.02757378 -10.04568835 21.82522153 -6.28515625 23.75 C6.12887234 30.19633314 6.12887234 30.19633314 10.15234375 35.5 C11.52572686 40.30684088 11.27295682 44.3310853 9.58984375 48.9375 C6.53987264 53.56504237 2.98294789 55.9645702 -2.22265625 57.6875 C-10.07595633 58.49441016 -17.78599934 58.75597863 -24.22265625 53.6875 C-27.24935646 50.84331437 -29.73075032 47.95068472 -30.22265625 43.6875 C-28.24265625 43.0275 -26.26265625 42.3675 -24.22265625 41.6875 C-23.66578125 42.595 -23.10890625 43.5025 -22.53515625 44.4375 C-19.21534858 49.10317564 -16.98198131 51.26185684 -11.34765625 52.625 C-6.81701849 52.96028439 -4.04121315 52.18125144 -0.22265625 49.6875 C1.00005694 46.01936044 1.25290531 43.88413662 -0.18359375 40.26953125 C-3.13031859 36.53814213 -6.78325145 34.88174697 -10.97265625 32.75 C-26.31259457 24.8662776 -26.31259457 24.8662776 -29.22265625 17.6875 C-29.73721787 12.45612358 -29.53882349 8.67427615 -26.58984375 4.23046875 C-20.21876637 -2.95974715 -8.46639269 -3.44813084 0 0 Z " fill="#2253A4" transform="translate(1383.22265625,455.3125)"/>
<path d="M0 0 C2.54644389 1.54720642 4.20845369 2.84806163 6.08984375 5.125 C6.82654297 5.98931641 6.82654297 5.98931641 7.578125 6.87109375 C8.85916977 8.81143843 9.35291572 10.41556171 9.77734375 12.6875 C7.79734375 13.3475 5.81734375 14.0075 3.77734375 14.6875 C3.49761719 14.14480469 3.21789062 13.60210937 2.9296875 13.04296875 C0.77937844 9.2056005 -0.73428495 6.99158025 -4.53515625 4.625 C-9.06672853 3.47290535 -11.66764766 3.70058147 -16.22265625 4.6875 C-19.42308169 6.39327941 -19.42308169 6.39327941 -20.22265625 9.4375 C-20.22265625 13.15179239 -19.30049238 14.41721183 -16.89404297 17.14892578 C-13.76690489 20.02757378 -10.04568835 21.82522153 -6.28515625 23.75 C6.12887234 30.19633314 6.12887234 30.19633314 10.15234375 35.5 C11.52572686 40.30684088 11.27295682 44.3310853 9.58984375 48.9375 C6.53987264 53.56504237 2.98294789 55.9645702 -2.22265625 57.6875 C-10.07595633 58.49441016 -17.78599934 58.75597863 -24.22265625 53.6875 C-27.24935646 50.84331437 -29.73075032 47.95068472 -30.22265625 43.6875 C-28.24265625 43.0275 -26.26265625 42.3675 -24.22265625 41.6875 C-23.66578125 42.595 -23.10890625 43.5025 -22.53515625 44.4375 C-19.21534858 49.10317564 -16.98198131 51.26185684 -11.34765625 52.625 C-6.81701849 52.96028439 -4.04121315 52.18125144 -0.22265625 49.6875 C1.00005694 46.01936044 1.25290531 43.88413662 -0.18359375 40.26953125 C-3.13031859 36.53814213 -6.78325145 34.88174697 -10.97265625 32.75 C-26.31259457 24.8662776 -26.31259457 24.8662776 -29.22265625 17.6875 C-29.73721787 12.45612358 -29.53882349 8.67427615 -26.58984375 4.23046875 C-20.21876637 -2.95974715 -8.46639269 -3.44813084 0 0 Z " fill="#2253A4" transform="translate(937.22265625,455.3125)"/>
<path d="M0 0 C1.85717773 0.04663086 1.85717773 0.04663086 4 1 C5.65649414 3.67016602 5.65649414 3.67016602 7.28515625 7.25390625 C7.58304047 7.89854828 7.88092468 8.54319031 8.18783569 9.20736694 C9.15994872 11.31969233 10.11124608 13.44070989 11.0625 15.5625 C11.7259893 17.0150014 12.39079265 18.46690325 13.05688477 19.91821289 C14.40276955 22.85640862 15.74048175 25.79810937 17.07128906 28.74316406 C18.83715734 32.64825058 20.62891435 36.54056928 22.4296875 40.4296875 C26.3350686 48.87566599 26.3350686 48.87566599 28.12109375 52.77734375 C28.4864624 53.57390381 28.85183105 54.37046387 29.22827148 55.19116211 C30 57 30 57 30 58 C26.37 58 22.74 58 19 58 C17.84658302 55.77447742 16.70218841 53.54504031 15.5625 51.3125 C15.23701172 50.68666016 14.91152344 50.06082031 14.57617188 49.41601562 C12.74892981 45.81804413 11.80562568 43.02812838 11 39 C3.08 39 -4.84 39 -13 39 C-13.66 40.98 -14.32 42.96 -15 45 C-16.01311071 47.30443317 -17.05538074 49.59624591 -18.125 51.875 C-18.66382813 53.02742188 -19.20265625 54.17984375 -19.7578125 55.3671875 C-20.37269531 56.67042969 -20.37269531 56.67042969 -21 58 C-22.98 58 -24.96 58 -27 58 C-25.55365531 53.33731153 -23.68389956 48.97214771 -21.5859375 44.57421875 C-21.25260406 43.86836136 -20.91927063 43.16250397 -20.57583618 42.43525696 C-19.51207158 40.18448314 -18.44366228 37.93595188 -17.375 35.6875 C-16.68067346 34.22085274 -15.98666062 32.75405693 -15.29296875 31.28710938 C-14.25323363 29.08876261 -13.21284607 26.89073986 -12.17010498 24.69381714 C-10.34458256 20.84748112 -8.52858886 16.99702386 -6.72753906 13.13916016 C-6.36052887 12.35426712 -5.99351868 11.56937408 -5.61538696 10.76069641 C-4.91060573 9.25224796 -4.20755572 7.74298914 -3.50643921 6.23283386 C-1.111273 1.111273 -1.111273 1.111273 0 0 Z M-2 15 C-4.97 21.6 -7.94 28.2 -11 35 C-4.73 35 1.54 35 8 35 C7.29260504 31.46302519 6.84071052 29.30330382 5.37109375 26.23046875 C5.05849609 25.56982422 4.74589844 24.90917969 4.42382812 24.22851562 C4.09833984 23.55498047 3.77285156 22.88144531 3.4375 22.1875 C3.10814453 21.49462891 2.77878906 20.80175781 2.43945312 20.08789062 C1.63127749 18.38955052 0.81631623 16.69444231 0 15 C-0.66 15 -1.32 15 -2 15 Z " fill="#2253A4" transform="translate(489,454)"/>
<path d="M0 0 C1.85717773 0.04663086 1.85717773 0.04663086 4 1 C5.65649414 3.67016602 5.65649414 3.67016602 7.28515625 7.25390625 C7.58304047 7.89854828 7.88092468 8.54319031 8.18783569 9.20736694 C9.15994872 11.31969233 10.11124608 13.44070989 11.0625 15.5625 C11.7259893 17.0150014 12.39079265 18.46690325 13.05688477 19.91821289 C14.40276955 22.85640862 15.74048175 25.79810937 17.07128906 28.74316406 C18.83715734 32.64825058 20.62891435 36.54056928 22.4296875 40.4296875 C26.3350686 48.87566599 26.3350686 48.87566599 28.12109375 52.77734375 C28.4864624 53.57390381 28.85183105 54.37046387 29.22827148 55.19116211 C30 57 30 57 30 58 C26.37 58 22.74 58 19 58 C17.84658302 55.77447742 16.70218841 53.54504031 15.5625 51.3125 C15.23701172 50.68666016 14.91152344 50.06082031 14.57617188 49.41601562 C12.74892981 45.81804413 11.80562568 43.02812838 11 39 C3.08 39 -4.84 39 -13 39 C-13.66 40.98 -14.32 42.96 -15 45 C-16.01311071 47.30443317 -17.05538074 49.59624591 -18.125 51.875 C-18.66382813 53.02742188 -19.20265625 54.17984375 -19.7578125 55.3671875 C-20.37269531 56.67042969 -20.37269531 56.67042969 -21 58 C-22.98 58 -24.96 58 -27 58 C-25.55365531 53.33731153 -23.68389956 48.97214771 -21.5859375 44.57421875 C-21.25260406 43.86836136 -20.91927063 43.16250397 -20.57583618 42.43525696 C-19.51207158 40.18448314 -18.44366228 37.93595188 -17.375 35.6875 C-16.68067346 34.22085274 -15.98666062 32.75405693 -15.29296875 31.28710938 C-14.25323363 29.08876261 -13.21284607 26.89073986 -12.17010498 24.69381714 C-10.34458256 20.84748112 -8.52858886 16.99702386 -6.72753906 13.13916016 C-6.36052887 12.35426712 -5.99351868 11.56937408 -5.61538696 10.76069641 C-4.91060573 9.25224796 -4.20755572 7.74298914 -3.50643921 6.23283386 C-1.111273 1.111273 -1.111273 1.111273 0 0 Z M-2 15 C-4.97 21.6 -7.94 28.2 -11 35 C-4.73 35 1.54 35 8 35 C7.29260504 31.46302519 6.84071052 29.30330382 5.37109375 26.23046875 C5.05849609 25.56982422 4.74589844 24.90917969 4.42382812 24.22851562 C4.09833984 23.55498047 3.77285156 22.88144531 3.4375 22.1875 C3.10814453 21.49462891 2.77878906 20.80175781 2.43945312 20.08789062 C1.63127749 18.38955052 0.81631623 16.69444231 0 15 C-0.66 15 -1.32 15 -2 15 Z " fill="#2253A4" transform="translate(205,454)"/>
<path d="M0 0 C13.2 0 26.4 0 40 0 C40 1.32 40 2.64 40 4 C30.43 4 20.86 4 11 4 C11 10.6 11 17.2 11 24 C17.27 24 23.54 24 30 24 C30 25.32 30 26.64 30 28 C23.73 28 17.46 28 11 28 C11 36.25 11 44.5 11 53 C20.57 53 30.14 53 40 53 C40 54.32 40 55.64 40 57 C26.8 57 13.6 57 0 57 C0 38.19 0 19.38 0 0 Z " fill="#2253A4" transform="translate(1291,455)"/>
<path d="M0 0 C13.2 0 26.4 0 40 0 C40 1.32 40 2.64 40 4 C30.43 4 20.86 4 11 4 C11 10.6 11 17.2 11 24 C17.27 24 23.54 24 30 24 C30 25.32 30 26.64 30 28 C23.73 28 17.46 28 11 28 C11 36.25 11 44.5 11 53 C20.57 53 30.14 53 40 53 C40 54.32 40 55.64 40 57 C26.8 57 13.6 57 0 57 C0 38.19 0 19.38 0 0 Z " fill="#2253A4" transform="translate(973,455)"/>
<path d="M0 0 C0.33 0 0.66 0 1 0 C1 99.33 1 198.66 1 301 C0.01 301 -0.98 301 -2 301 C-2.04574402 263.08763243 -2.0810022 225.17526901 -2.10213066 187.26287944 C-2.10463217 182.79040591 -2.10722081 178.31793243 -2.10986328 173.84545898 C-2.1103879 172.95504271 -2.11091252 172.06462644 -2.11145304 171.14722786 C-2.12016367 156.71595907 -2.13593725 142.28470616 -2.15430559 127.8534468 C-2.17298637 113.0536609 -2.18411286 98.25388333 -2.18817699 83.45408612 C-2.19092584 74.31647386 -2.19961835 65.17890648 -2.21583293 56.04130802 C-2.22637734 49.78150244 -2.22960642 43.52172017 -2.22700275 37.26190635 C-2.22571748 33.64640314 -2.22773424 30.03097854 -2.23841095 26.4154892 C-2.2498848 22.50162861 -2.2459936 18.5878716 -2.24050903 14.67399597 C-2.24633472 13.5232319 -2.2521604 12.37246784 -2.25816262 11.18683213 C-2.25418052 10.1428071 -2.25019842 9.09878208 -2.24609566 8.02311993 C-2.24723482 6.66694877 -2.24723482 6.66694877 -2.24839699 5.28338021 C-2 3 -2 3 0 0 Z " fill="#2253A3" transform="translate(838,73)"/>
<path d="M0 0 C3.63 0 7.26 0 11 0 C17.84954829 13.58387054 24.55519177 27.21924955 31 41 C33.30118445 37.54822333 34.95009765 33.92011378 36.66015625 30.15625 C37.0100914 29.39074829 37.36002655 28.62524658 37.7205658 27.83654785 C38.45891301 26.21988581 39.19598957 24.60264294 39.93188477 22.98486328 C41.05886416 20.50799084 42.19023985 18.03316323 43.32226562 15.55859375 C44.03932394 13.98709843 44.75612938 12.4154877 45.47265625 10.84375 C45.81120132 10.10306274 46.1497464 9.36237549 46.49855042 8.59924316 C47.78999869 5.75618773 49.01173841 2.96478477 50 0 C51.98 0 53.96 0 56 0 C54.40233627 5.18061767 52.28056104 10.02352519 50.04296875 14.94921875 C49.6581282 15.80248245 49.27328766 16.65574615 48.87678528 17.53486633 C47.64976056 20.25365697 46.41868584 22.97059156 45.1875 25.6875 C44.37147944 27.49402079 43.55572173 29.30066033 42.74023438 31.10742188 C38.84008722 39.74428929 34.92820937 48.3758571 31 57 C28.72729492 56.91113281 28.72729492 56.91113281 26 56 C24.51395857 53.77644458 23.44797396 51.83284894 22.36328125 49.421875 C22.0418364 48.74683426 21.72039154 48.07179352 21.38920593 47.376297 C20.34607433 45.17532532 19.32924502 42.96326796 18.3125 40.75 C17.6038928 39.24131626 16.89360031 37.73342294 16.18164062 36.22631836 C14.76642384 33.22454736 13.36088966 30.21854941 11.96337891 27.20849609 C10.25074797 23.52576221 8.50059544 19.8625461 6.73046875 16.20703125 C6.2614917 15.23733398 5.79251465 14.26763672 5.30932617 13.26855469 C4.45458109 11.50200714 3.59929933 9.73571914 2.7434082 7.96972656 C0 2.22779296 0 2.22779296 0 0 Z " fill="#2253A4" transform="translate(1097,456)"/>
<path d="M0 0 C0.33 0 0.66 0 1 0 C1 93.39 1 186.78 1 283 C0.01 283 -0.98 283 -2 283 C-2.04574538 247.38072616 -2.08100289 211.76145746 -2.10213066 176.14216031 C-2.10463217 171.94006971 -2.1072208 167.73797918 -2.10986328 163.53588867 C-2.11065021 162.28101086 -2.11065021 162.28101086 -2.11145304 161.00078199 C-2.12016334 147.44249373 -2.13593675 133.88422237 -2.15430559 120.32594415 C-2.17298727 106.42112813 -2.18411305 92.51632099 -2.18817699 78.61149293 C-2.19092565 70.02664978 -2.19961715 61.44185441 -2.21583293 52.85702596 C-2.22637845 46.97566616 -2.22960617 41.09433117 -2.22700275 35.21296259 C-2.22571765 31.81618618 -2.22773228 28.41949344 -2.23841095 25.02273178 C-2.24829505 21.34530212 -2.24599281 17.66808039 -2.24050903 13.99064636 C-2.24633472 12.90991936 -2.2521604 11.82919237 -2.25816262 10.71571606 C-2.25418052 9.73439216 -2.25019842 8.75306825 -2.24609566 7.74200726 C-2.24723482 6.46785569 -2.24723482 6.46785569 -2.24839699 5.16796368 C-2 3 -2 3 0 0 Z " fill="#2253A3" transform="translate(824,91)"/>
<path d="M0 0 C0.33 0 0.66 0 1 0 C1 104.94 1 209.88 1 318 C0.01 318 -0.98 318 -2 318 C-2.19762603 137.07049906 -2.19762603 137.07049906 -1.59428024 58.5646286 C-1.56746468 55.06183441 -1.54230702 51.55903052 -1.51765215 48.05622053 C-1.46707458 40.87443933 -1.41072235 33.69273545 -1.34712219 26.51105499 C-1.32687032 24.17036427 -1.30809844 21.82966022 -1.29090881 19.48894501 C-1.26721474 16.35242582 -1.23727016 13.21603422 -1.20532227 10.07958984 C-1.19956712 9.16094461 -1.19381197 8.24229939 -1.18788242 7.29581642 C-1.11449633 1.11449633 -1.11449633 1.11449633 0 0 Z " fill="#2253A3" transform="translate(852,56)"/>
<path d="M0 0 C3.85032498 -0.68407013 7.16825107 -0.87053478 11 0 C14.45944949 3.07273004 16.60912372 6.78258568 18.9375 10.75 C20.19339824 12.76763061 21.45240445 14.78333069 22.71484375 16.796875 C23.25230225 17.69760742 23.78976074 18.59833984 24.34350586 19.52636719 C26.00993441 22.014835 27.81540014 23.9613175 30 26 C30.47421387 25.28344238 30.94842773 24.56688477 31.43701172 23.82861328 C33.19817422 21.16982324 34.96141399 18.51242664 36.72607422 15.85595703 C37.48928 14.70612086 38.25165624 13.55573362 39.01318359 12.40478516 C40.10816491 10.75017845 41.20638363 9.09771562 42.3046875 7.4453125 C42.96452637 6.45031738 43.62436523 5.45532227 44.30419922 4.43017578 C46 2 46 2 48 0 C51.125 -0.125 51.125 -0.125 54 0 C50.69624079 6.24757579 47.02150343 12.03175462 42.875 17.75 C41.82908683 19.20194335 40.7847701 20.65503826 39.7421875 22.109375 C39.2869873 22.73811523 38.83178711 23.36685547 38.36279297 24.01464844 C37.91307129 24.66981445 37.46334961 25.32498047 37 26 C36.45899658 26.78238037 35.91799316 27.56476074 35.3605957 28.37084961 C33.77759119 31.42977221 33.57621616 33.52756991 33.48828125 36.95703125 C33.45283203 38.06884766 33.41738281 39.18066406 33.38085938 40.32617188 C33.35830078 41.47666016 33.33574219 42.62714844 33.3125 43.8125 C33.27833984 44.98232422 33.24417969 46.15214844 33.20898438 47.35742188 C33.12668363 50.23794788 33.06166067 53.11895828 33 56 C29.37 56 25.74 56 22 56 C22.05542969 54.453125 22.11085938 52.90625 22.16796875 51.3125 C22.34186627 37.19042998 20.66219062 28.67436107 11.53710938 17.88964844 C8.87704026 14.61948723 6.61700415 11.08750516 4.3125 7.5625 C3.66196655 6.59364868 3.66196655 6.59364868 2.99829102 5.60522461 C0 1.12643189 0 1.12643189 0 0 Z " fill="#2253A4" transform="translate(531,456)"/>
<path d="M0 0 C0.33 0 0.66 0 1 0 C1 87.45 1 174.9 1 265 C0.01 265 -0.98 265 -2 265 C-2.04574693 231.67381926 -2.08100368 198.34764632 -2.10213066 165.02144117 C-2.10463216 161.08973352 -2.1072208 157.15802592 -2.10986328 153.22631836 C-2.1103879 152.44356422 -2.11091252 151.66081008 -2.11145304 150.85433612 C-2.12016298 138.16902831 -2.13593618 125.48373857 -2.15430559 112.79844149 C-2.17298829 99.78859537 -2.18411327 86.77875873 -2.18817699 73.76889974 C-2.19092544 65.73682553 -2.19961578 57.70480239 -2.21583293 49.67274389 C-2.22762391 43.5206532 -2.22891548 37.36860169 -2.22621536 31.21650124 C-2.22676767 28.68765574 -2.23077334 26.15880839 -2.23841095 23.62997437 C-2.24829762 20.18900934 -2.24599188 16.74826645 -2.24050903 13.30729675 C-2.24633472 12.29660682 -2.2521604 11.28591689 -2.25816262 10.2446 C-2.25418052 9.32597721 -2.25019842 8.40735443 -2.24609566 7.46089458 C-2.2468551 6.66613993 -2.24761454 5.87138528 -2.24839699 5.05254716 C-2 3 -2 3 0 0 Z " fill="#2253A3" transform="translate(810,109)"/>
<path d="M0 0 C0.33 0 0.66 0 1 0 C1 81.51 1 163.02 1 247 C0.01 247 -0.98 247 -2 247 C-2.04559664 215.96691291 -2.08100459 184.93383466 -2.10213066 153.90072204 C-2.10463216 150.23939732 -2.1072208 146.57807267 -2.10986328 142.91674805 C-2.11065021 141.82336344 -2.11065021 141.82336344 -2.11145304 140.70789025 C-2.12016255 128.8955628 -2.13593552 117.08325476 -2.15430559 105.27093884 C-2.17298947 93.15606262 -2.18411351 81.04119658 -2.18817699 68.92630655 C-2.1909252 61.44700106 -2.19961422 53.96775043 -2.21583293 46.48846183 C-2.22762568 40.75939108 -2.22891518 35.03035572 -2.22621536 29.30127525 C-2.22676758 26.94658571 -2.23077215 24.59189417 -2.23841095 22.23721695 C-2.24830057 19.03271589 -2.24599081 15.82845324 -2.24050903 12.62394714 C-2.24633472 11.68329428 -2.2521604 10.74264142 -2.25816262 9.77348393 C-2.25418052 8.91756227 -2.25019842 8.0616406 -2.24609566 7.17978191 C-2.2468551 6.43970699 -2.24761454 5.69963207 -2.24839699 4.93713063 C-2 3 -2 3 0 0 Z " fill="#2253A3" transform="translate(796,127)"/>
<path d="M0 0 C3.63 0 7.26 0 11 0 C11 17.16 11 34.32 11 52 C20.24 52 29.48 52 39 52 C39 53.32 39 54.64 39 56 C26.13 56 13.26 56 0 56 C0 37.52 0 19.04 0 0 Z " fill="#2253A4" transform="translate(818,456)"/>
<path d="M0 0 C3.63 0 7.26 0 11 0 C11 17.16 11 34.32 11 52 C20.24 52 29.48 52 39 52 C39 53.32 39 54.64 39 56 C26.13 56 13.26 56 0 56 C0 37.52 0 19.04 0 0 Z " fill="#2253A4" transform="translate(759,456)"/>
<path d="M0 0 C0.33 0 0.66 0 1 0 C1 75.57 1 151.14 1 229 C0.01 229 -0.98 229 -2 229 C-2.04559866 200.26000923 -2.08100564 171.52002271 -2.10213066 142.7800029 C-2.10463215 139.38906112 -2.10722079 135.99811941 -2.10986328 132.60717773 C-2.1103879 131.93208573 -2.11091252 131.25699372 -2.11145304 130.56144438 C-2.12016206 119.62209718 -2.13593476 108.68277094 -2.15430559 97.74343618 C-2.17299083 86.52353052 -2.18396404 75.30363535 -2.18817699 64.08371335 C-2.19078993 57.77961088 -2.1969536 51.47555599 -2.21146011 45.17146873 C-2.22499235 39.24297778 -2.2292315 33.31455421 -2.22621536 27.38604927 C-2.22676748 25.20551564 -2.23077077 23.02497985 -2.23841095 20.84445953 C-2.248304 17.8764216 -2.24598957 14.90864093 -2.24050903 11.94059753 C-2.24633472 11.06998174 -2.2521604 10.19936595 -2.25816262 9.30236787 C-2.22824242 3.34236363 -2.22824242 3.34236363 0 0 Z " fill="#2253A3" transform="translate(782,145)"/>
<path d="M0 0 C0.33 0 0.66 0 1 0 C1 69.63 1 139.26 1 211 C-0.32 211 -1.64 211 -3 211 C-3.02769513 174.340163 -2.90261562 137.68209618 -2.71247292 101.02279758 C-2.65676435 90.25159996 -2.60776559 79.48041222 -2.56685698 68.70914799 C-2.53718804 61.04546832 -2.50000857 53.38184718 -2.45720994 45.71822971 C-2.43202157 41.16922243 -2.41020987 36.6202575 -2.39665604 32.07119942 C-2.38389445 27.83126472 -2.36190597 23.59148104 -2.33261681 19.35162926 C-2.32351692 17.79633329 -2.31784521 16.24101306 -2.31578636 14.68569183 C-2.31248322 12.57113601 -2.29706356 10.45701292 -2.2784729 8.34254456 C-2.27294214 7.15874993 -2.26741138 5.97495531 -2.26171303 4.75528812 C-2 2 -2 2 0 0 Z " fill="#2253A3" transform="translate(768,163)"/>
<path d="M0 0 C3.63 0 7.26 0 11 0 C11 18.48 11 36.96 11 56 C7.37 56 3.74 56 0 56 C0 37.52 0 19.04 0 0 Z " fill="#2253A4" transform="translate(1173,456)"/>
<path d="M0 0 C3.63 0 7.26 0 11 0 C11 18.48 11 36.96 11 56 C7.37 56 3.74 56 0 56 C0 37.52 0 19.04 0 0 Z " fill="#2253A4" transform="translate(337,456)"/>
<path d="M0 0 C0.33 0 0.66 0 1 0 C1.17281036 18.12494464 1.33923818 36.24994459 1.5 54.375 C1.50594854 55.04478913 1.51189708 55.71457827 1.51802588 56.40466404 C1.83135261 91.72796418 2.1013721 127.04997909 2.0625 162.375 C2.06164398 163.15886833 2.06078796 163.94273666 2.05990601 164.75035858 C2.04919162 173.83360045 2.03032914 182.9168003 2 192 C0.68 192 -0.64 192 -2 192 C-2.11286688 143.84193026 -2.06881707 95.68797184 -1.59428024 47.53173065 C-1.56241278 44.24099364 -1.53246413 40.95024385 -1.50296021 37.65948486 C-1.45613481 32.48851891 -1.40392306 27.31763626 -1.34712219 22.14677048 C-1.32678356 20.23901354 -1.30802378 18.33123905 -1.29090881 16.42345047 C-1.26709925 13.82681838 -1.23710864 11.23033397 -1.20532227 8.63378906 C-1.19956712 7.86691584 -1.19381197 7.10004261 -1.18788242 6.3099308 C-1.11431631 1.11431631 -1.11431631 1.11431631 0 0 Z " fill="#2253A3" transform="translate(753,182)"/>
<path d="M0 0 C0.33 0 0.66 0 1 0 C1 52.14 1 104.28 1 158 C-0.32 158 -1.64 158 -3 158 C-3.13856282 122.55745405 -3.00368253 87.11756984 -2.68161011 51.67633057 C-2.64279506 47.3828554 -2.60864849 43.08938129 -2.57839966 38.7958374 C-2.54200275 33.68223705 -2.49579305 28.56881792 -2.44199944 23.45537186 C-2.42347496 21.54752173 -2.40831773 19.63963573 -2.39663887 17.73173141 C-2.37992058 15.11165549 -2.35098657 12.49199582 -2.31884766 9.87207031 C-2.31668778 9.09756971 -2.31452791 8.32306911 -2.31230259 7.5250988 C-2.22830219 2.22830219 -2.22830219 2.22830219 0 0 Z " fill="#2253A3" transform="translate(726,216)"/>
<path d="M0 0 C0.33 0 0.66 0 1 0 C1 57.42 1 114.84 1 174 C0.01 174 -0.98 174 -2 174 C-2.04666591 151.60853647 -2.08196225 129.21708093 -2.10362434 106.82557869 C-2.11394857 96.42943829 -2.12803074 86.03332807 -2.15087891 75.63720703 C-2.17077776 66.57875292 -2.18370809 57.52032064 -2.18817699 48.46184528 C-2.19079033 43.66292231 -2.19695647 38.86406184 -2.21146011 34.06515884 C-2.22498872 29.55250372 -2.22923226 25.03993712 -2.22621536 20.52726364 C-2.22676765 18.86716481 -2.23077312 17.20706316 -2.23841095 15.54698181 C-2.24829851 13.28797554 -2.24599181 11.02930759 -2.24050903 8.77029419 C-2.24235262 7.50375063 -2.24419621 6.23720707 -2.24609566 4.9322834 C-2 2 -2 2 0 0 Z " fill="#2253A3" transform="translate(739,200)"/>
<path d="M0 0 C0.33 0 0.66 0 1 0 C1 45.87 1 91.74 1 139 C0.01 139 -0.98 139 -2 139 C-2.02343502 122.9265457 -2.04103101 106.853097 -2.05181217 90.77962971 C-2.0569527 83.31523884 -2.06395232 75.85085863 -2.07543945 68.38647461 C-2.08545518 61.87507294 -2.09186971 55.36367899 -2.09408849 48.85226983 C-2.09538398 45.40949718 -2.09839531 41.96674662 -2.10573006 38.52398109 C-2.11304061 34.66612082 -2.11398674 30.80830559 -2.11352539 26.95043945 C-2.11712067 25.82833572 -2.12071594 24.70623199 -2.12442017 23.55012512 C-2.09684916 2.09684916 -2.09684916 2.09684916 0 0 Z " fill="#2253A3" transform="translate(711,235)"/>
<path d="M0 0 C0.33 0 0.66 0 1 0 C1 39.93 1 79.86 1 121 C0.01 121 -0.98 121 -2 121 C-2.04673467 105.96184891 -2.08199604 90.92370345 -2.10362434 75.88549519 C-2.11393396 68.9028868 -2.12798828 61.92032355 -2.15087891 54.93774414 C-2.17295312 48.20098944 -2.18456432 41.46429135 -2.18975449 34.72749901 C-2.19345394 32.15545093 -2.20067788 29.58340547 -2.21146011 27.01137733 C-2.2259474 23.41288295 -2.22797907 19.81458324 -2.22705078 16.21606445 C-2.23424133 15.14935516 -2.24143188 14.08264587 -2.24884033 12.98361206 C-2.246091 12.00069687 -2.24334167 11.01778168 -2.24050903 10.00508118 C-2.24235262 9.15426625 -2.24419621 8.30345133 -2.24609566 7.42685413 C-1.96632582 4.66792453 -1.13407288 2.51827856 0 0 Z " fill="#2253A3" transform="translate(697,253)"/>
<path d="M0 0 C0.33 0 0.66 0 1 0 C1 33.99 1 67.98 1 103 C-0.32 103 -1.64 103 -3 103 C-2.91576191 89.86567667 -2.82094363 76.73147698 -2.71247292 63.59733009 C-2.66244562 57.49915483 -2.61611628 51.40099744 -2.578125 45.30273438 C-2.54135333 39.42177778 -2.49501583 33.54096842 -2.44193649 27.66013718 C-2.42334925 25.4122004 -2.40825746 23.16423201 -2.39665604 20.91624832 C-2.37986749 17.77685594 -2.35085073 14.637804 -2.31884766 11.49853516 C-2.31668747 10.56130112 -2.31452728 9.62406708 -2.31230164 8.65843201 C-2.30113815 7.80585312 -2.28997467 6.95327423 -2.2784729 6.07485962 C-2.27017676 4.9604119 -2.27017676 4.9604119 -2.26171303 3.82345009 C-2 2 -2 2 0 0 Z " fill="#2253A3" transform="translate(683,271)"/>
<path d="M0 0 C0.33 0 0.66 0 1 0 C1 28.05 1 56.1 1 85 C-0.32 85 -1.64 85 -3 85 C-3.06677571 69.83573201 -2.92047183 54.67389775 -2.71246719 39.51125145 C-2.66195092 35.82451568 -2.61548169 32.13782247 -2.578125 28.45092773 C-2.54137405 24.83032692 -2.49512265 21.20996652 -2.44193649 17.589571 C-2.42343614 16.22084221 -2.40831213 14.85206339 -2.39665604 13.4832592 C-2.37987269 11.5889153 -2.34970103 9.6947041 -2.31884766 7.80053711 C-2.30552399 6.7253331 -2.29220032 5.65012909 -2.2784729 4.54234314 C-2 2 -2 2 0 0 Z " fill="#2253A3" transform="translate(669,289)"/>
</svg>
